<?xml version="1.0" encoding="UTF-8"?>
<svg xmlns="http://www.w3.org/2000/svg" version="1.1" viewBox="0 0 24 24">
  <defs>
    <style>
      .cls-1 {
        fill: #0039a6;
      }

      .cls-2 {
        fill: #fff;
      }
    </style>
  </defs>
  <!-- Generator: Adobe Illustrator 28.6.0, SVG Export Plug-In . SVG Version: 1.2.0 Build 709)  -->
  <g>
    <g id="Layer_1">
      <path class="cls-1" d="M22,6v12c0,.6-.2,1-.6,1.4s-.9.6-1.4.6H4c-.6,0-1-.2-1.4-.6s-.6-.9-.6-1.4V6c0-.6.2-1,.6-1.4s.9-.6,1.4-.6h16c.6,0,1,.2,1.4.6s.6.9.6,1.4ZM4,8h16v-2H4v2ZM4,12v6h16v-6H4ZM4,18V6v12Z"/>
      <circle class="cls-2" cx="18" cy="18" r="6"/>
      <path class="cls-1" d="M18.1,22l3.5-3.5c.2-.2.3-.4.4-.7s.2-.5.2-.8c0-.6-.2-1.1-.6-1.5s-.9-.6-1.5-.6-.6,0-.9.3-.7.5-1.1.9c-.5-.5-.9-.8-1.2-1s-.6-.3-.9-.3c-.6,0-1.1.2-1.5.6s-.6.9-.6,1.5,0,.6.2.8.3.5.4.7l3.5,3.5Z"/>
    </g>
  </g>
</svg>