<?xml version="1.0" encoding="UTF-8"?>
<svg xmlns="http://www.w3.org/2000/svg" version="1.1" viewBox="0 0 24 24">
  <defs>
    <style>
      .cls-1 {
        fill: #0039a6;
      }
    </style>
  </defs>
  <!-- Generator: Adobe Illustrator 28.6.0, SVG Export Plug-In . SVG Version: 1.2.0 Build 709)  -->
  <g>
    <g id="Layer_1">
      <path class="cls-1" d="M2,20v-3h2V6c0-.6.2-1,.6-1.4s.9-.6,1.4-.6h15v2H6v11h6v3H2ZM15,20c-.3,0-.5,0-.7-.3s-.3-.4-.3-.7v-10c0-.3,0-.5.3-.7s.4-.3.7-.3h6c.3,0,.5,0,.7.3s.3.4.3.7v10c0,.3,0,.5-.3.7s-.4.3-.7.3h-6ZM16,17h4v-7h-4v7ZM16,17h4-4Z"/>
    </g>
  </g>
</svg>