<?xml version="1.0" encoding="UTF-8"?>
<svg id="Layer_1" data-name="Layer 1" xmlns="http://www.w3.org/2000/svg" viewBox="0 0 560 115">
  <defs>
    <style>
      .cls-1 {
        fill: #863dff;
      }

      .cls-1, .cls-2 {
        stroke-width: 0px;
      }

      .cls-2 {
        fill: #0039a6;
      }
    </style>
  </defs>
  <path class="cls-2" d="m234.06,31.9c-5.67-3.37-12.33-5.05-19.99-5.05-7.13,0-13.48,1.78-19.06,5.34-5.58,3.56-9.95,8.34-13.1,14.35-3.15,6.01-4.73,12.58-4.73,19.69s1.65,13.6,4.94,19.59c3.3,5.99,7.9,10.76,13.81,14.29,5.91,3.54,12.55,5.3,19.93,5.3,4.86,0,9.4-.75,13.63-2.25,3.86-1.37,10.72-5.71,10.72-5.71,1.22-.87,1.88-2.94.68-4.78-1.18-1.82-5.88-8.39-5.88-8.39,0,0-.02,0-.03,0-.67-1.01-2.72-2.11-4.71-1.1-1.87.94-4.83,2.44-6.04,2.89-2.25.83-4.75,1.25-7.51,1.25s-5.59-.57-8.12-1.72c-2.53-1.14-4.74-2.78-6.61-4.9-1.88-2.12-3.24-4.66-4.11-7.61,0,0,49.65.01,49.7.01,1.82,0,3.34-1.32,3.66-3.07.03-.04.05-.07.05-.09.04-.51.06-1.01.08-1.5.02-.77.03-1.53.03-2.28,0-7.57-1.47-14.33-4.42-20.28-2.95-5.95-7.25-10.61-12.91-13.98m-36.37,26.09c.74-2.83,1.95-5.27,3.62-7.33,1.67-2.06,3.65-3.62,5.93-4.68,2.29-1.06,4.79-1.59,7.51-1.59s5.32.53,7.57,1.59c2.24,1.06,4.14,2.61,5.68,4.65,1.55,2.04,2.69,4.49,3.43,7.36h-33.74Z"/>
  <path class="cls-2" d="m288.96,48.09c2.97-1.81,6.18-2.71,9.64-2.71,2.76,0,5.24.39,7.45,1.15,1.84.64,5.55,2.75,5.6,2.77.66.34,1.34.68,2.13.68,1.14,0,2.15-.53,2.83-1.34,0,0,.01,0,.01,0l.07-.1c.1-.13.2-.26.28-.41l5.64-8.16c.58-.66.94-1.52.94-2.48,0-1.1-.47-2.09-1.21-2.78-.33-.3-7.3-4.44-10.81-5.67-4.24-1.48-8.82-2.21-13.72-2.21-7.38,0-14.01,1.77-19.9,5.3-5.89,3.54-10.48,8.31-13.78,14.32-3.3,6.01-4.94,12.6-4.94,19.75s1.66,13.67,4.97,19.66,7.91,10.74,13.78,14.26c5.87,3.51,12.45,5.27,19.74,5.27,5.03,0,9.71-.76,14.06-2.28,3.73-1.31,7.1-3.07,10.12-5.28,0,0,0,0,0,0,.08-.06.12-.09.28-.23.82-.69,1.36-1.72,1.36-2.89,0-.82-.27-1.58-.71-2.2l-6.12-8.84s-.02,0-.02,0c-.68-.87-1.73-1.44-2.92-1.44-.95,0-1.67.57-2.46.95-.05.03-3.46,1.93-5.16,2.52-2.2.77-4.69,1.15-7.45,1.15-3.46,0-6.67-.89-9.64-2.68-2.97-1.79-5.34-4.27-7.11-7.43-1.77-3.16-2.66-6.68-2.66-10.55s.87-7.51,2.63-10.67c1.75-3.16,4.11-5.65,7.08-7.46"/>
  <path class="cls-2" d="m180.26,32.15c-.12-.54-.56-1.04-1.3-1.5-8.71-4.08-16.31-3.07-18.68-2.21-2.37.85-4.48,2.05-6.33,3.59-1.85,1.54-3.48,3.41-4.88,5.62l-2.78-7.24c-.5-1.33-1.44-2-2.84-2h-10.37c-2.06,0-3.73,1.69-3.73,3.77v67.91c0,2.08,1.67,3.77,3.73,3.77h12.68c2.06,0,3.73-1.69,3.73-3.77,0-.41-.05-33.99-.05-33.99,0-4.2.75-7.81,2.26-10.83,1.5-3.01,3.46-5.28,5.87-6.8,1.77-1.12,5.72-2.87,9.07-2.33,1.2.19,4.58,2.15,5.13,1.99.56-.16,1.04-.6,1.45-1.31l6.74-12.79c.33-.71.43-1.33.31-1.87"/>
  <path class="cls-2" d="m109.83,28.71h-12.68c-2.06,0-3.73,1.69-3.73,3.77v67.91c0,2.08,1.67,3.77,3.73,3.77h12.68c2.06,0,3.73-1.69,3.73-3.77V32.48c0-2.08-1.67-3.77-3.73-3.77"/>
  <path class="cls-2" d="m109.83,1h-12.68c-2.06,0-3.73,1.69-3.73,3.77v10.91c0,2.08,1.67,3.77,3.73,3.77h12.68c2.06,0,3.73-1.69,3.73-3.77V4.77c0-2.08-1.67-3.77-3.73-3.77"/>
  <path class="cls-2" d="m361.4,28.4h-10.07l-.02-23.24c.01-.13.04-.26.04-.39,0-2.08-1.67-3.77-3.73-3.77-.06,0-.12.02-.18.02l-12.49-.02h0c-2.06,0-3.73,1.69-3.73,3.77,0,.05.01.1.01.15h-.01s.12,68.38.12,68.38c0,3.97-.12,11.84,5.15,20.37,1.13,1.83,8.11,10.54,8.18,10.63.38.5.88.92,1.5,1.19,1.07.46,2.23.37,3.19-.13l10.02-7.01c.82-.59,1.34-1,1.68-1.82.46-1.08.37-2.25-.13-3.22,0,0-4.64-5.82-5.93-7.91-3.53-5.72-3.71-13.88-3.71-13.88v-25.24s10.16-.03,10.16-.03c1.99-.02,3.59-1.6,3.68-3.59,0,.94.02-3.16.02-10.49,0-2.08-1.67-3.77-3.73-3.77"/>
  <path class="cls-2" d="m444.47,46.44c-3.52-6.03-8.31-10.81-14.37-14.32-6.06-3.52-12.71-5.27-19.96-5.27s-13.79,1.76-19.87,5.27c-6.08,3.52-10.88,8.29-14.4,14.32-3.52,6.03-5.28,12.65-5.28,19.85s1.75,13.67,5.25,19.66c3.5,5.99,8.26,10.73,14.28,14.23,6.01,3.49,12.65,5.24,19.9,5.24s13.86-1.75,19.96-5.24c6.1-3.49,10.92-8.24,14.46-14.23,3.54-5.99,5.31-12.54,5.31-19.66s-1.76-13.81-5.28-19.85m-17.46,29.77c-1.73,3-4.09,5.37-7.08,7.11-2.99,1.75-6.23,2.62-9.73,2.62s-6.8-.87-9.76-2.62c-2.97-1.75-5.33-4.12-7.08-7.11-1.75-3-2.63-6.34-2.63-10.05s.88-7.07,2.63-10.11c1.75-3.04,4.1-5.41,7.04-7.11,2.94-1.7,6.21-2.56,9.79-2.56s6.8.85,9.76,2.56c2.97,1.71,5.32,4.08,7.05,7.11,1.73,3.04,2.6,6.41,2.6,10.11s-.87,7.05-2.6,10.05"/>
  <path class="cls-2" d="m74.08,1.01h-12.81c-2.06,0-3.73,1.69-3.73,3.77,0,.04,0,28.68,0,28.68-1.52-1.33-3.2-2.45-5.04-3.37-1.83-.91-3.84-1.63-6.03-2.15-2.18-.52-4.53-.78-7.04-.78-6.96,0-13.39,1.75-19.28,5.24-5.89,3.49-10.56,8.23-14,14.2-3.44,5.97-5.16,12.49-5.16,19.56s1.72,13.79,5.16,19.78c3.44,5.99,8.08,10.74,13.93,14.26,5.85,3.52,12.3,5.27,19.34,5.27,2.84,0,5.48-.32,7.91-.97,2.43-.65,4.62-1.55,6.58-2.71,1.96-1.16,3.76-2.56,5.41-4.18l1.42,4.24c.25.71.6,1.22,1.05,1.53.45.31,1.05.47,1.79.47h10.48c2.06,0,3.73-1.69,3.73-3.77V4.78c0-2.08-1.67-3.77-3.73-3.77m-17.74,75.51c-1.67,2.96-3.96,5.27-6.89,6.96-2.93,1.68-6.14,2.53-9.64,2.53s-6.74-.84-9.58-2.53c-2.84-1.68-5.07-3.99-6.67-6.93-1.61-2.93-2.41-6.29-2.41-10.08s.81-7.13,2.44-10.17c1.63-3.04,3.87-5.4,6.74-7.08,2.86-1.69,6.07-2.53,9.61-2.53s6.76.85,9.64,2.56c2.88,1.71,5.15,4.07,6.8,7.08,1.65,3.02,2.47,6.4,2.47,10.14s-.83,7.09-2.5,10.05"/>
  <path class="cls-1" d="m509.65,66.76c0-.1.01-.19.01-.29s0-.19-.01-.29c-.01-.18-.04-.37-.08-.55,0-.01,0-.03,0-.04-.15-.65-.46-1.26-.93-1.76-3.17-4.31-30.92-42.01-31.14-42.31-1.23-1.67-3.57-2.02-5.22-.78-.32.24-9.86,7.4-10.18,7.64-1.65,1.24-2,3.6-.77,5.27.16.22,14.91,20.26,24.15,32.81-9.24,12.56-23.99,32.59-24.15,32.82-1.23,1.67-.88,4.03.77,5.27.32.24,9.86,7.4,10.18,7.64,1.65,1.24,3.99.89,5.22-.78.22-.3,27.97-38,31.14-42.31.48-.5.79-1.11.93-1.76,0-.01,0-.03,0-.04.04-.18.07-.36.08-.55"/>
  <path class="cls-1" d="m555.99,66.76c0-.1.01-.19.01-.29s0-.19-.01-.29c-.01-.18-.04-.37-.08-.55,0-.01,0-.03,0-.04-.15-.65-.46-1.26-.93-1.76-3.17-4.31-30.92-42.01-31.14-42.31-1.23-1.67-3.57-2.02-5.22-.78-.32.24-9.86,7.4-10.18,7.64-1.65,1.24-2,3.6-.77,5.27.16.22,14.91,20.26,24.15,32.81-9.24,12.56-23.99,32.59-24.15,32.82-1.23,1.67-.88,4.03.77,5.27.32.24,9.86,7.4,10.18,7.64,1.65,1.24,3.99.89,5.22-.78.22-.3,27.97-38,31.14-42.31.48-.5.79-1.11.93-1.76,0-.01,0-.03,0-.04.04-.18.07-.36.08-.55"/>
</svg>