<?xml version="1.0" encoding="UTF-8"?>
<svg id="Layer_1" data-name="Layer 1" xmlns="http://www.w3.org/2000/svg" viewBox="0 0 200 45">
  <defs>
    <style>
      .cls-1 {
        fill: #87be80;
      }

      .cls-1, .cls-2 {
        stroke-width: 0px;
      }

      .cls-2 {
        fill: #66add8;
      }
    </style>
  </defs>
  <path class="cls-2" d="m7.39,22.22c0,2.56.32,4.85.99,6.87.66,2.02,1.54,3.7,2.66,5.08,1.12,1.38,2.43,2.43,3.92,3.16,1.49.73,3.06,1.1,4.71,1.1,1.39,0,2.76-.36,4.09-1.07,1.34-.71,2.56-1.66,3.63-2.83,1.09-1.17,1.98-2.52,2.68-4.05.7-1.52,1.12-3.09,1.3-4.72h-12.04v-5.05h18.21v21.74h-4.58l-.92-5.16c-.76.84-1.62,1.63-2.57,2.38-.95.75-1.96,1.42-3.02,1.97-1.06.56-2.16,1.01-3.29,1.34-1.14.33-2.26.5-3.37.5-2.89,0-5.51-.55-7.81-1.64-2.33-1.09-4.3-2.59-5.93-4.51-1.61-1.91-2.88-4.16-3.74-6.73-.87-2.59-1.32-5.38-1.32-8.38,0-1.75.19-3.49.55-5.21.39-1.73.93-3.39,1.65-4.95.73-1.57,1.61-3.03,2.67-4.37,1.05-1.35,2.26-2.53,3.64-3.51,1.38-.99,2.91-1.76,4.59-2.32,1.65-.56,3.46-.85,5.41-.85,2.48,0,4.69.35,6.65,1.03,1.95.69,3.65,1.63,5.11,2.84,1.46,1.21,2.69,2.65,3.67,4.32.98,1.68,1.77,3.5,2.33,5.5h-6.54c-1.03-2.92-2.44-5.09-4.28-6.53-1.82-1.43-4.13-2.13-6.94-2.13-1.77,0-3.4.43-4.89,1.29-1.51.86-2.77,2.04-3.84,3.52-1.05,1.48-1.89,3.21-2.49,5.16-.6,1.96-.9,4.03-.9,6.21Z"/>
  <path class="cls-2" d="m48.17,29.39c.05,1.18.28,2.3.69,3.34.4,1.04.92,1.97,1.56,2.77.64.79,1.4,1.43,2.26,1.89.85.47,1.78.7,2.79.7,3.39,0,5.75-1.86,7.03-5.56h5.82c-.34,1.68-.93,3.16-1.76,4.45-.82,1.29-1.8,2.39-2.96,3.27-1.15.9-2.41,1.58-3.82,2.04-1.39.46-2.83.7-4.31.7-2.11,0-4.01-.42-5.7-1.26-1.69-.84-3.14-1.96-4.32-3.36-1.2-1.4-2.13-3.05-2.78-4.92-.64-1.87-.97-3.85-.97-5.92,0-1.94.32-3.79.96-5.55.65-1.77,1.56-3.32,2.74-4.66,1.18-1.34,2.63-2.41,4.31-3.19,1.69-.79,3.6-1.19,5.69-1.19s3.91.36,5.54,1.07c1.63.72,3.03,1.7,4.19,2.95,1.16,1.26,2.04,2.75,2.67,4.48.61,1.73.92,3.59.92,5.62v2.32h-20.55Zm14.13-4.55c-.1-.99-.32-1.91-.69-2.76-.37-.84-.86-1.57-1.48-2.19-.62-.61-1.35-1.1-2.2-1.45-.85-.36-1.79-.53-2.8-.53-.93,0-1.8.19-2.59.56-.79.37-1.5.88-2.11,1.52-.61.63-1.09,1.36-1.48,2.21-.38.83-.63,1.72-.74,2.65h14.1Z"/>
  <path class="cls-2" d="m79.18,32.53c.03,1.02.17,1.87.45,2.57.28.71.67,1.29,1.14,1.73.46.44,1.01.76,1.66.96.65.21,1.35.31,2.08.31.62,0,1.28-.05,1.98-.17.67-.11,1.29-.31,1.88-.6.56-.29,1.03-.67,1.41-1.14.37-.48.56-1.08.56-1.8,0-.61-.17-1.13-.53-1.6-.36-.45-.82-.85-1.41-1.2-.6-.35-1.28-.67-2.04-.97-.77-.29-1.56-.58-2.39-.87-1.22-.41-2.43-.86-3.63-1.32-1.21-.47-2.31-1.03-3.27-1.71-.97-.68-1.76-1.49-2.36-2.44-.6-.95-.9-2.11-.9-3.48s.3-2.49.89-3.47c.6-.99,1.38-1.81,2.37-2.46.98-.64,2.13-1.12,3.41-1.44,1.29-.31,2.63-.47,4.02-.47,1.56,0,3.02.18,4.36.53,1.35.35,2.53.89,3.54,1.62,1,.72,1.79,1.64,2.4,2.76.61,1.13.94,2.45,1.02,3.99h-1.32c-.45,0-.93,0-1.41-.01-.5-.02-1.04-.02-1.61-.02h-1.92c-.11-.74-.3-1.36-.6-1.86-.3-.51-.66-.91-1.11-1.21-.45-.3-.96-.52-1.53-.64-.58-.12-1.18-.19-1.83-.19-1.42,0-2.52.27-3.28.8-.75.52-1.14,1.24-1.14,2.14,0,.54.18,1.04.53,1.46.36.44.84.82,1.44,1.17.59.35,1.27.68,2.04.99.76.3,1.57.59,2.4.88,1.15.42,2.34.88,3.54,1.38,1.21.51,2.29,1.09,3.26,1.76.97.66,1.77,1.43,2.38,2.33.62.87.92,1.92.92,3.12,0,1.64-.32,3.01-.98,4.16-.65,1.14-1.53,2.07-2.65,2.81-1.11.73-2.4,1.27-3.87,1.6-1.45.33-2.99.5-4.61.5s-3.05-.21-4.43-.65c-1.4-.43-2.63-1.08-3.7-1.95-1.05-.87-1.92-1.96-2.56-3.27-.64-1.29-.99-2.83-1.05-4.6h6.41Z"/>
  <path class="cls-2" d="m109.48,5.2v8.25h4.3v4.87h-4.3v17.24c0,.97.18,1.64.56,1.99.37.37.84.55,1.44.55.25,0,.6-.04,1.06-.1.45-.07,1.09-.2,1.93-.38v4.7c-.8.21-1.59.37-2.39.5-.81.11-1.52.18-2.2.18-.88,0-1.72-.11-2.53-.33-.79-.22-1.5-.57-2.12-1.04-.63-.48-1.11-1.1-1.46-1.85-.37-.77-.54-1.69-.54-2.8v-18.67h-4.27v-4.87h4.27V5.2h6.27Z"/>
  <path class="cls-2" d="m124.94,2.37v6.14h-6.21V2.37h6.21Zm0,11.07v29h-6.21V13.44h6.21Z"/>
  <path class="cls-1" d="m166.97,13.82h6.22v2.57c1.24-.96,2.62-1.71,4.13-2.25,1.5-.53,2.97-.8,4.42-.8s2.77.2,3.92.61c1.14.41,2.12,1,2.89,1.76.8.76,1.41,1.69,1.82,2.77.42,1.1.64,2.32.64,3.7v20.29h-6.16v-19.78c0-1.63-.35-2.78-1.05-3.45-.69-.66-1.65-1-2.84-1-1.09,0-2.1.21-3.04.61-.95.41-1.76.94-2.46,1.59-.71.65-1.27,1.42-1.65,2.29-.41.87-.61,1.76-.61,2.67v17.08h-6.22V13.82Z"/>
  <g>
    <path class="cls-1" d="m157.7,14.01c-1.02-1.03-2.77-.79-3.5.48h0l-.23.38c-.5.88-.37,1.98.36,2.7,2.18,2.23,3.51,5.34,3.38,8.76-.23,6.12-5.2,11.11-11.33,11.35-6.76.26-12.32-5.13-12.32-11.81,0-3.22,1.3-6.13,3.37-8.26.72-.72.86-1.83.36-2.71l-.22-.39h0c-.74-1.27-2.48-1.52-3.51-.49-3.15,3.13-5.03,7.51-4.91,12.33.27,8.85,7.49,16.03,16.33,16.25,9.43.21,17.14-7.36,17.14-16.74,0-4.64-1.87-8.84-4.93-11.86Z"/>
    <path class="cls-1" d="m146.91,29.56h-2.21c-.93,0-1.67-.75-1.67-1.68V8.35c0-.93.74-1.69,1.67-1.69h2.21c.94,0,1.69.75,1.69,1.69v19.54c0,.93-.75,1.68-1.69,1.68Z"/>
  </g>
</svg>