<?xml version="1.0" encoding="UTF-8"?>
<svg id="Layer_1" data-name="Layer 1" xmlns="http://www.w3.org/2000/svg" viewBox="0 0 200 55.59">
  <defs>
    <style>
      .cls-1 {
        fill: #7a7a7a;
      }

      .cls-1, .cls-2, .cls-3 {
        stroke-width: 0px;
      }

      .cls-2 {
        fill: #00b3b5;
      }

      .cls-3 {
        fill: #00b2b3;
      }
    </style>
  </defs>
  <g>
    <g>
      <path class="cls-2" d="m31.83,14.91c1.99-2.41,2.53-5.75,1.36-8.67C31.49,2.01,26.96.04,22.18,1.46c-3.09.92-5.44,2.88-6.79,5.69-1.54,3.19-1.6,7.07-.15,10.65.79,1.96,2.05,3.71,3.66,5.06l.2.17c.34-.54.82-1.78.82-2.93l-.39-.43c-.76-.83-1.33-1.82-1.76-2.88-1.14-2.83-1.11-5.99.08-8.45.88-1.83,2.36-3.2,4.28-3.97.27-.11.55-.21.84-.29,3.97-1.18,6.74.76,7.72,3.19,1.13,2.8-.1,6.05-2.8,7.4-.4.2-.59.69-.42,1.11l.39.96c.16.4.6.62,1.03.52,1.37-.33,2.86.34,3.32,1.49.26.65.2,1.38-.17,2.07-.38.71-1.04,1.28-1.85,1.6-1.82.73-3.8.85-5.73.34l-.33-.09c-.09.87-.49,2.07-.77,2.61l.39.1c1.77.47,3.58.53,5.33.19.72-.14,1.44-.35,2.13-.63,1.47-.59,2.65-1.66,3.32-3.02.68-1.37.75-2.86.21-4.19-.5-1.25-1.54-2.25-2.87-2.81Z"/>
      <path class="cls-2" d="m22.58,14.84c-.67-1.65-1.6-3.13-2.78-4.39-.38-.41-.87-.88-1.21-1.17-.43.28-.92,2.17-.7,3.12l.18.2c.84.96,1.51,2.06,1.99,3.25.98,2.44.99,5.1.04,7.49-.96,2.39-2.76,4.22-5.09,5.15-1.66.67-3.46.11-4-1.25-.46-1.14.15-2.65,1.36-3.37.38-.23.54-.69.38-1.09l-.39-.96c-.17-.42-.64-.64-1.07-.51-2.88.9-6.02-.59-7.15-3.4-.98-2.44-.32-5.75,3.35-7.65,1.98-1.02,4.08-1.24,6.09-.65.04-.76.45-1.84.85-2.58-.22-.06-.64-.18-.86-.23-2.46-.54-4.97-.18-7.34,1.04C1.82,10.15-.09,14.71,1.62,18.95c1.17,2.91,3.88,4.95,6.98,5.31-.58,1.33-.63,2.77-.13,4.02.96,2.39,3.65,3.64,6.35,3.11.4-.08.8-.2,1.2-.36,3-1.21,5.34-3.56,6.58-6.62,1.24-3.06,1.23-6.46-.02-9.56Z"/>
    </g>
    <g>
      <path class="cls-2" d="m60.13,10.89c.99,0,1.85-.33,2.55-.98.71-.66,1.08-1.5,1.08-2.48s-.36-1.86-1.07-2.54c-.7-.67-1.56-1.01-2.56-1.01s-1.85.34-2.54,1.01c-.69.68-1.04,1.53-1.04,2.53s.35,1.81,1.05,2.48c.69.65,1.54.99,2.54.99Z"/>
      <path class="cls-2" d="m63.59,26.71c-.19-.03-.62-.09-.62-1.25v-10.31c0-.85-.53-1.38-1.38-1.38h-3.04c-.85,0-1.38.53-1.38,1.38v10.93c0,4.51,2.63,5.46,4.85,5.46,1.74-.04,2.62-.56,2.62-1.55v-2c0-.7-.38-1.18-1.04-1.29Z"/>
    </g>
    <path class="cls-2" d="m81.75,7.21c.31-.71.16-1.37-.42-1.76-1.33-1.02-3-1.53-4.99-1.53-2.62,0-4.63.78-5.99,2.32-1.33,1.51-2.01,3.58-2.01,6.14v17.8c0,.85.51,1.38,1.34,1.38h3.04c.83,0,1.34-.53,1.34-1.38v-11.55h3.79c.83,0,1.34-.51,1.34-1.34v-2.12c0-.85-.51-1.38-1.34-1.38h-3.79v-1.2c0-1.15.25-2.05.74-2.67.46-.58,1.1-.86,1.96-.86s1.6.25,2.38.76c.35.27.67.27.87.23.21-.05.51-.19.74-.64l1-2.18Z"/>
    <path class="cls-2" d="m99.23,20.74c0-3.43-1.57-10.37-9.01-10.37-6.98,0-9.48,5.93-9.48,10.58,0,5.8,3.7,9.67,7.85,10.41,4.14.74,8.01-1.16,8.69-1.55.69-.39.68-.88.45-1.48-.39-1.02-.63-1.57-.91-2.3-.26-.69-.9-.84-1.44-.59-3.08,1.42-8.78,1.84-8.9-3.08h11.25c.94,0,1.5-.61,1.5-1.63Zm-5.58-2.17h-7.23c0-1.96,1.31-3.27,3.82-3.27,1.99,0,3.4,1.16,3.4,3.27Z"/>
    <path class="cls-2" d="m53.08,26.61h-5.82c-.41,0-.75-.34-.75-.75V5.85c0-.8-.51-1.3-1.34-1.3h-3.08c-.83,0-1.34.5-1.34,1.3v21.23c0,2.46,2,4.46,4.46,4.46h7.83c.83,0,1.34-.5,1.34-1.3v-2.33c0-.72-.58-1.3-1.3-1.3Z"/>
    <g>
      <path class="cls-1" d="m112.83,21.99c-.21.15-.36.15-.46,0-.62-.94-1.57-1.4-2.86-1.39-.73-.01-1.3.14-1.71.46-.41.32-.63.73-.64,1.22,0,.39.13.72.4.99s.61.46,1.03.6c.42.14.88.26,1.39.37.51.11,1.02.25,1.52.42.5.17.97.38,1.39.63.42.25.76.61,1.03,1.09.26.48.4,1.06.4,1.74,0,1.02-.41,1.89-1.22,2.6-.81.71-2.01,1.07-3.58,1.07-.76,0-1.46-.09-2.1-.27-.63-.18-1.15-.41-1.54-.69-.39-.28-.7-.54-.91-.76-.22-.22-.39-.44-.53-.66-.11-.18-.08-.34.09-.48l.89-.83c.18-.18.34-.18.48,0,.92,1.18,2.13,1.77,3.62,1.77.74,0,1.32-.15,1.75-.45.42-.3.64-.71.64-1.23,0-.43-.13-.79-.4-1.07-.27-.28-.61-.49-1.03-.63-.42-.14-.89-.26-1.4-.37-.51-.11-1.02-.25-1.52-.41-.5-.16-.97-.36-1.39-.6-.42-.24-.77-.6-1.03-1.08-.27-.48-.4-1.06-.4-1.74,0-1.03.41-1.9,1.24-2.6.82-.7,1.96-1.05,3.4-1.05.71,0,1.36.08,1.93.23.57.15,1.04.35,1.39.6s.63.47.83.68c.2.21.36.42.48.63.12.2.09.36-.11.5l-1.03.7Z"/>
      <path class="cls-1" d="m117.54,31.69c-.23,0-.35-.12-.35-.35v-12.23c0-.23.12-.35.35-.35h7.35c.23,0,.35.12.35.35v1.18c0,.23-.12.35-.35.35h-5.38v3.69h4.23c.23,0,.35.12.35.35v1.18c0,.22-.12.33-.37.33h-4.21v3.6h5.38c.23,0,.35.12.35.35v1.18c0,.23-.12.35-.35.35h-7.35Z"/>
      <path class="cls-1" d="m138.12,27.11c0,1.31-.41,2.41-1.23,3.32-.82.91-2.03,1.37-3.63,1.37-1.72,0-3.1-.56-4.14-1.67-1.03-1.11-1.55-2.74-1.55-4.87s.5-3.8,1.51-4.92c1.01-1.13,2.39-1.69,4.14-1.69.71,0,1.36.11,1.94.32s1.03.47,1.36.78c.33.3.6.65.83,1.05.23.4.38.74.47,1.03.09.28.15.55.18.81.04.18-.08.3-.35.35l-1.4.22c-.22.04-.36-.04-.41-.24-.04-.21-.09-.42-.17-.63-.07-.21-.2-.45-.37-.73-.17-.28-.44-.5-.79-.67-.36-.17-.78-.26-1.26-.26-.99,0-1.78.38-2.39,1.14s-.91,1.91-.91,3.44.32,2.64.96,3.39c.64.75,1.44,1.12,2.4,1.12.9,0,1.56-.25,1.98-.74.42-.49.63-1.13.63-1.92v-.35h-2.64c-.22,0-.33-.12-.33-.35v-1.03c0-.23.12-.35.35-.35h4.45c.25,0,.37.12.37.35v1.74Z"/>
      <path class="cls-1" d="m148.74,19.11c0-.23.11-.35.33-.35h1.63c.23,0,.35.12.35.35v7.24c0,1.93-.45,3.32-1.34,4.17-.89.85-2.08,1.27-3.57,1.27s-2.69-.42-3.59-1.27c-.91-.85-1.36-2.24-1.36-4.17l.02-7.24c0-.23.12-.35.35-.35h1.63c.22,0,.33.12.33.35v7.43c0,2.14.87,3.21,2.62,3.21s2.6-1.07,2.6-3.21v-7.43Z"/>
      <path class="cls-1" d="m165.44,31.3c0,.15-.1.26-.3.35-.21.07-.52.11-.94.11-.71,0-1.31-.17-1.78-.52-.47-.34-.83-.76-1.08-1.26-.25-.49-.47-.99-.68-1.48-.21-.49-.48-.91-.81-1.26-.33-.34-.75-.52-1.26-.52h-1.57v4.6c0,.23-.12.35-.35.35h-1.63c-.23,0-.35-.12-.35-.35v-12.23c0-.23.12-.35.35-.35h4.12c1.58,0,2.76.32,3.56.96.8.64,1.2,1.66,1.2,3.05,0,.87-.22,1.59-.67,2.14-.45.55-.99.94-1.62,1.16.3.22.58.56.85,1.03.27.46.49.89.66,1.28.17.39.4.75.7,1.05.3.31.65.47,1.04.48h.28c.18,0,.28.1.28.31v1.07Zm-6.56-6.32c.81,0,1.47-.19,1.99-.56.51-.38.77-.9.77-1.58s-.22-1.21-.67-1.61c-.45-.39-1.08-.59-1.89-.59h-2.05v4.34h1.87Z"/>
      <path class="cls-1" d="m168.7,30.14c-1.08-1.11-1.62-2.74-1.62-4.89s.54-3.79,1.62-4.91c1.08-1.12,2.45-1.68,4.11-1.68s3.01.56,4.09,1.68c1.08,1.12,1.62,2.76,1.62,4.91s-.54,3.79-1.61,4.89c-1.07,1.11-2.44,1.66-4.1,1.66s-3.03-.55-4.11-1.66Zm6.5-1.44c.62-.74.93-1.89.93-3.45s-.31-2.73-.93-3.46c-.62-.73-1.42-1.1-2.39-1.1s-1.77.37-2.39,1.1c-.62.73-.93,1.89-.93,3.46s.31,2.72.93,3.45,1.42,1.11,2.39,1.11,1.77-.37,2.39-1.11Z"/>
      <path class="cls-1" d="m189.52,21.99c-.21.15-.36.15-.46,0-.62-.94-1.57-1.4-2.86-1.39-.73-.01-1.3.14-1.71.46-.41.32-.63.73-.64,1.22,0,.39.13.72.4.99.26.26.61.46,1.03.6.42.14.88.26,1.39.37.51.11,1.02.25,1.52.42s.97.38,1.39.63c.42.25.76.61,1.03,1.09.26.48.4,1.06.4,1.74,0,1.02-.41,1.89-1.22,2.6-.81.71-2.01,1.07-3.58,1.07-.76,0-1.46-.09-2.1-.27-.63-.18-1.15-.41-1.54-.69-.39-.28-.7-.54-.91-.76-.22-.22-.39-.44-.53-.66-.11-.18-.08-.34.09-.48l.89-.83c.18-.18.34-.18.48,0,.92,1.18,2.13,1.77,3.62,1.77.74,0,1.32-.15,1.75-.45.42-.3.64-.71.64-1.23,0-.43-.13-.79-.4-1.07-.27-.28-.61-.49-1.03-.63-.42-.14-.89-.26-1.4-.37-.51-.11-1.02-.25-1.52-.41-.5-.16-.97-.36-1.39-.6s-.77-.6-1.03-1.08c-.27-.48-.4-1.06-.4-1.74,0-1.03.41-1.9,1.24-2.6.82-.7,1.96-1.05,3.4-1.05.71,0,1.36.08,1.93.23.57.15,1.04.35,1.39.6.36.25.63.47.83.68.2.21.36.42.48.63.12.2.09.36-.11.5l-1.03.7Z"/>
    </g>
  </g>
  <g>
    <path class="cls-3" d="m48.6,37.33c.13,0,.19.06.19.19v.53c0,.12-.07.18-.21.18h-3.15v8.5c0,.13-.06.19-.19.19h-.69c-.13,0-.19-.06-.19-.19v-8.5h-3.23c-.12,0-.18-.06-.18-.18v-.53c0-.13.06-.19.19-.19h7.46Z"/>
    <path class="cls-3" d="m55.12,46.76c0,.14-.16.21-.48.21-.69,0-1.03-.36-1.03-1.08v-.16c-.17.37-.45.68-.83.93-.38.24-.86.36-1.45.36-1.4,0-2.1-.78-2.1-2.34v-4.15c0-.13.06-.19.19-.19h.66c.13,0,.19.06.19.19v4.03c0,1.06.46,1.59,1.38,1.59.58,0,1.03-.22,1.35-.66s.49-.85.49-1.25v-3.71c0-.13.06-.19.18-.19h.69c.12,0,.18.06.18.19v4.96c0,.39.14.62.41.67.11.03.16.11.16.23v.38Z"/>
    <path class="cls-3" d="m60.78,41.15c-.11,0-.16-.06-.16-.18v-.47c0-.13.06-.19.18-.19h.78v-1.07c0-.71.18-1.28.55-1.69.37-.42.9-.62,1.62-.62.62,0,1.13.17,1.54.52.09.06.11.15.05.26l-.23.45c-.05.1-.11.11-.19.03-.31-.26-.67-.38-1.07-.38s-.69.13-.9.39c-.22.26-.33.62-.33,1.09v1.03h2.23c.12,0,.18.06.18.19v.47c0,.12-.05.18-.16.18h-2.25v5.58c0,.13-.06.19-.19.19h-.66c-.12,0-.18-.06-.18-.19v-5.58h-.8Z"/>
    <path class="cls-3" d="m67.25,46.11c-.52-.6-.78-1.43-.78-2.49s.26-1.89.78-2.49c.52-.6,1.22-.9,2.11-.9s1.59.3,2.12.9c.53.6.79,1.43.79,2.49s-.26,1.89-.78,2.49c-.52.6-1.23.9-2.12.9s-1.59-.3-2.11-.9Zm3.47-.62c.34-.43.51-1.05.51-1.86s-.17-1.43-.51-1.86c-.34-.43-.8-.64-1.36-.64s-1.01.21-1.35.64c-.34.43-.51,1.05-.51,1.86s.17,1.43.51,1.86c.34.43.79.64,1.36.64s1.02-.21,1.36-.64Z"/>
    <path class="cls-3" d="m74.79,41.77c0-.4-.14-.63-.42-.67-.09-.03-.14-.08-.14-.16v-.44c0-.15.15-.22.45-.22.28,0,.52.08.72.25.2.17.29.43.29.77v.44c.12-.44.35-.8.7-1.08.35-.28.81-.42,1.4-.42.23,0,.47.04.71.11.1.05.13.11.08.19l-.29.64c-.05.1-.12.13-.21.1-.17-.06-.37-.1-.58-.1-.53,0-.94.21-1.24.62-.3.42-.45.87-.46,1.35v3.58c0,.13-.05.19-.16.19h-.67c-.13,0-.19-.06-.19-.19v-4.96Z"/>
    <path class="cls-3" d="m90.28,45.47c0,.45.13.67.4.67.11,0,.16.07.16.22v.38c0,.15-.16.22-.48.22-.76,0-1.14-.46-1.14-1.37v-2.78c0-.51-.13-.92-.38-1.23-.26-.31-.64-.47-1.15-.47-.48,0-.87.18-1.15.53-.28.36-.45.77-.49,1.25v2.58c0,.45.13.67.4.67.11,0,.16.07.16.22v.38c0,.15-.16.22-.47.22-.76,0-1.14-.46-1.14-1.37v-2.78c0-.51-.13-.92-.39-1.23-.26-.31-.65-.47-1.16-.47-.55,0-.97.21-1.27.64-.3.43-.45.9-.45,1.4v3.58c0,.13-.05.19-.16.19h-.67c-.13,0-.19-.06-.19-.19v-4.99c0-.38-.14-.6-.41-.64-.1-.02-.15-.1-.15-.23v-.38c0-.14.16-.21.47-.21.28,0,.52.09.72.27.2.18.29.42.29.73v.44c.12-.43.35-.78.71-1.06.35-.28.82-.42,1.4-.42s1.01.13,1.37.4c.36.27.61.62.75,1.06.19-.46.44-.81.74-1.07.3-.26.75-.38,1.36-.38.79,0,1.38.24,1.76.72.38.48.57,1.1.57,1.86v2.66Z"/>
    <path class="cls-3" d="m98.48,46.75c0,.14-.16.21-.47.21s-.56-.08-.75-.25c-.19-.17-.28-.42-.28-.76v-.21c-.45.85-1.22,1.27-2.32,1.27-.66,0-1.17-.15-1.54-.46-.37-.31-.56-.72-.56-1.24,0-1.19.85-1.78,2.56-1.78h1.75v-.99c0-.95-.5-1.43-1.51-1.43-.48,0-.84.11-1.1.32-.26.21-.39.49-.39.84,0,.16.02.31.07.42,0,.05,0,.08-.03.1-.03.02-.07.03-.14.03h-.52c-.24,0-.36-.24-.36-.73,0-.55.22-1,.66-1.34.44-.35,1.05-.52,1.84-.52,1.67,0,2.51.78,2.51,2.33v2.89c0,.42.13.65.4.69.11.02.16.07.16.16v.44Zm-1.59-2.48h-1.75c-.48,0-.86.08-1.12.25-.26.16-.39.4-.39.7s.12.55.35.72c.23.17.55.25.95.25.46,0,.85-.14,1.17-.41.32-.27.54-.55.64-.82l.15-.4v-.29Z"/>
    <path class="cls-3" d="m110.58,46.76c0,.14-.16.21-.47.21-.29,0-.54-.09-.73-.26-.2-.17-.29-.42-.29-.74v-.23c-.24.44-.53.76-.86.96-.37.21-.81.32-1.3.32-.73,0-1.35-.28-1.87-.85-.52-.57-.77-1.4-.77-2.51s.26-2.01.78-2.57c.52-.56,1.18-.84,1.97-.84.27,0,.51.03.75.1.23.07.42.14.55.23.13.08.25.18.36.29.11.11.18.2.22.25.04.05.06.1.08.14v-4.08c0-.13.06-.19.18-.19h.66c.13,0,.19.06.19.19v8.25c0,.45.13.69.4.73.11.03.16.09.16.18v.44Zm-1.59-4.28c0-.06-.04-.16-.1-.29-.06-.13-.15-.28-.28-.45-.13-.17-.32-.32-.58-.45-.26-.12-.54-.19-.86-.19-.54,0-.98.22-1.34.65-.35.43-.53,1.06-.53,1.87s.18,1.43.54,1.86c.36.42.81.64,1.34.64.33,0,.62-.07.87-.21.25-.14.44-.31.56-.52.12-.21.21-.38.27-.51.05-.13.09-.24.11-.33h0v-2.08Z"/>
    <path class="cls-3" d="m113.57,43.62v.14c.03.86.24,1.47.65,1.83.41.36.87.54,1.38.54.66,0,1.19-.24,1.6-.73.12-.13.21-.16.26-.11l.36.37c.08.08.1.16.04.25-.54.73-1.33,1.1-2.38,1.1-.83,0-1.53-.28-2.1-.83-.57-.55-.85-1.41-.85-2.56s.25-1.98.75-2.54c.5-.56,1.22-.84,2.15-.84.87,0,1.5.27,1.89.8.39.53.59,1.32.59,2.35,0,.16-.08.23-.23.23h-4.11Zm3.36-.73c0-.54-.12-.97-.37-1.3s-.64-.49-1.18-.49c-.49,0-.9.15-1.21.44-.32.29-.5.74-.57,1.34h3.33Z"/>
    <path class="cls-3" d="m126,46.92c-.09,0-.16-.07-.21-.21l-2.34-6.18c-.03-.05-.02-.11.02-.15.04-.05.09-.07.16-.07h.73c.11,0,.18.05.22.15l1.88,5.28,1.92-5.28c.04-.1.11-.15.22-.15h.66c.06,0,.12.02.16.07.04.05.05.1.02.15l-2.34,6.18c-.05.14-.11.21-.21.21h-.88Z"/>
    <path class="cls-3" d="m132.66,38.73c-.15.14-.32.21-.53.21s-.39-.07-.53-.21c-.15-.14-.22-.31-.22-.51s.07-.39.22-.53c.15-.14.32-.21.53-.21s.39.07.53.21c.15.14.22.32.22.53s-.07.37-.22.51Zm.52,8.03c0,.14-.16.21-.48.21-.75,0-1.12-.46-1.12-1.37v-5.14c0-.12.06-.18.18-.18h.67c.13,0,.19.06.19.19v5c0,.41.13.63.4.67.11.03.16.09.16.18v.44Z"/>
    <path class="cls-3" d="m137.5,46.92c-.09,0-.16-.07-.21-.21l-2.34-6.18c-.03-.05-.02-.11.02-.15.04-.05.09-.07.16-.07h.73c.11,0,.18.05.22.15l1.88,5.28,1.92-5.28c.04-.1.11-.15.22-.15h.66c.06,0,.12.02.16.07.04.05.05.1.02.15l-2.34,6.18c-.05.14-.11.21-.21.21h-.88Z"/>
    <path class="cls-3" d="m144.16,38.73c-.15.14-.32.21-.53.21s-.39-.07-.53-.21c-.15-.14-.22-.31-.22-.51s.07-.39.22-.53c.15-.14.32-.21.53-.21s.39.07.53.21c.15.14.22.32.22.53s-.07.37-.22.51Zm.52,8.03c0,.14-.16.21-.48.21-.75,0-1.12-.46-1.12-1.37v-5.14c0-.12.06-.18.18-.18h.67c.13,0,.19.06.19.19v5c0,.41.13.63.4.67.11.03.16.09.16.18v.44Z"/>
    <path class="cls-3" d="m147.12,41.77c0-.4-.14-.63-.42-.67-.09-.03-.14-.08-.14-.16v-.44c0-.15.15-.22.45-.22.28,0,.52.08.72.25.2.17.29.43.29.77v.44c.12-.44.35-.8.7-1.08.35-.28.81-.42,1.4-.42.23,0,.47.04.71.11.1.05.13.11.08.19l-.29.64c-.05.1-.12.13-.21.1-.17-.06-.37-.1-.58-.1-.53,0-.94.21-1.24.62-.3.42-.45.87-.46,1.35v3.58c0,.13-.05.19-.16.19h-.67c-.13,0-.19-.06-.19-.19v-4.96Z"/>
  </g>
</svg>