<?xml version="1.0" encoding="UTF-8"?>
<svg id="Layer_1" data-name="Layer 1" xmlns="http://www.w3.org/2000/svg" viewBox="0 0 210 55">
  <defs>
    <style>
      .cls-1 {
        fill: #7a7a7a;
      }

      .cls-1, .cls-2, .cls-3 {
        stroke-width: 0px;
      }

      .cls-2 {
        fill: #8f73ef;
      }

      .cls-3 {
        fill: #9372f6;
      }
    </style>
  </defs>
  <g>
    <g>
      <path class="cls-3" d="m32.01,14.99c2-2.42,2.55-5.79,1.37-8.72C31.67,2.01,27.11.03,22.3,1.46c-3.11.92-5.47,2.9-6.84,5.72-1.55,3.2-1.61,7.11-.16,10.71.79,1.97,2.07,3.73,3.68,5.09l.2.17c.35-.55.82-1.79.82-2.94l-.39-.43c-.76-.84-1.34-1.83-1.77-2.9-1.15-2.85-1.12-6.02.08-8.5.89-1.84,2.38-3.22,4.3-4,.27-.11.55-.21.84-.29,3.99-1.18,6.78.76,7.76,3.21,1.13,2.82-.1,6.09-2.82,7.44-.41.2-.59.69-.42,1.11l.39.97c.16.41.6.62,1.04.52,1.37-.33,2.88.35,3.34,1.49.26.65.2,1.39-.17,2.08-.38.71-1.04,1.28-1.86,1.61-1.83.74-3.83.86-5.77.34l-.33-.09c-.09.88-.5,2.08-.78,2.62l.39.1c1.78.48,3.6.54,5.36.19.73-.14,1.44-.35,2.14-.64,1.48-.6,2.66-1.67,3.34-3.04.68-1.38.76-2.87.21-4.22-.51-1.26-1.54-2.27-2.89-2.83Z"/>
      <path class="cls-3" d="m22.71,14.92c-.67-1.66-1.61-3.15-2.8-4.42-.39-.41-.88-.88-1.22-1.17-.43.28-.92,2.18-.7,3.14l.18.21c.84.97,1.52,2.07,2,3.27.99,2.45,1,5.13.04,7.54-.96,2.4-2.78,4.24-5.12,5.18-1.67.67-3.48.11-4.03-1.25-.46-1.15.15-2.67,1.37-3.39.39-.23.55-.69.38-1.1l-.39-.97c-.17-.42-.64-.65-1.08-.51-2.9.9-6.06-.6-7.19-3.42-.99-2.45-.33-5.78,3.37-7.69,1.99-1.03,4.1-1.25,6.13-.65.04-.76.45-1.85.86-2.6-.22-.06-.64-.18-.86-.23-2.47-.54-5-.19-7.38,1.05C1.82,10.21-.09,14.79,1.62,19.05c1.18,2.93,3.9,4.98,7.02,5.34-.58,1.33-.63,2.78-.13,4.04.97,2.41,3.67,3.66,6.38,3.13.4-.08.81-.2,1.2-.36,3.02-1.22,5.37-3.58,6.62-6.66,1.24-3.08,1.24-6.49-.02-9.62Z"/>
    </g>
    <g>
      <path class="cls-3" d="m60.49,10.95c1,0,1.86-.33,2.57-.99.72-.67,1.08-1.51,1.08-2.5s-.36-1.87-1.08-2.55c-.71-.67-1.57-1.01-2.57-1.01s-1.87.34-2.56,1.02c-.7.68-1.05,1.54-1.05,2.55s.36,1.82,1.06,2.49c.69.66,1.55.99,2.55.99Z"/>
      <path class="cls-3" d="m63.97,26.86c-.19-.03-.63-.09-.63-1.26v-10.37c0-.86-.53-1.39-1.39-1.39h-3.06c-.86,0-1.39.53-1.39,1.39v11c0,4.54,2.64,5.49,4.88,5.49,1.75-.04,2.63-.56,2.63-1.56v-2.01c0-.7-.39-1.19-1.05-1.3Z"/>
    </g>
    <path class="cls-3" d="m82.23,7.25c.31-.72.16-1.38-.42-1.77-1.33-1.02-3.02-1.54-5.02-1.54-2.63,0-4.66.78-6.02,2.33-1.34,1.52-2.02,3.6-2.02,6.18v17.9c0,.86.52,1.39,1.35,1.39h3.06c.83,0,1.35-.53,1.35-1.39v-11.62h3.81c.83,0,1.35-.52,1.35-1.35v-2.13c0-.86-.52-1.39-1.35-1.39h-3.81v-1.21c0-1.16.25-2.06.74-2.68.46-.58,1.11-.87,1.97-.87s1.61.25,2.39.76c.35.27.67.28.87.23.21-.05.51-.19.74-.65l1.01-2.19Z"/>
    <path class="cls-3" d="m99.82,20.86c0-3.45-1.58-10.43-9.07-10.43-7.02,0-9.53,5.97-9.53,10.65,0,5.83,3.73,9.73,7.89,10.48,4.17.75,8.05-1.16,8.74-1.56.69-.39.68-.89.45-1.49-.39-1.03-.64-1.58-.91-2.32-.26-.7-.9-.85-1.45-.6-3.1,1.43-8.84,1.85-8.95-3.1h11.32c.95,0,1.51-.61,1.51-1.64Zm-5.62-2.19h-7.27c0-1.97,1.31-3.29,3.85-3.29,2,0,3.42,1.17,3.42,3.29Z"/>
    <path class="cls-3" d="m53.39,26.76h-5.85c-.41,0-.75-.34-.75-.75V5.88c0-.81-.52-1.31-1.35-1.31h-3.1c-.83,0-1.35.5-1.35,1.31v21.36c0,2.48,2.01,4.49,4.49,4.49h7.87c.83,0,1.35-.5,1.35-1.31v-2.34c0-.72-.59-1.31-1.31-1.31Z"/>
  </g>
  <g>
    <path class="cls-1" d="m108.12,31.48c0,.22-.13.35-.35.35h-1.63c-.22,0-.35-.13-.35-.35v-12.27c0-.22.13-.35.35-.35h1.63c.22,0,.35.13.35.35v12.27Z"/>
    <path class="cls-1" d="m119.25,31.84c-.39,0-.59-.19-.8-.54l-4.78-8.19v8.37c0,.22-.13.35-.35.35h-1.63c-.22,0-.35-.13-.35-.35v-12.27c0-.22.13-.35.35-.35h1.63c.41,0,.63.28.8.59l4.78,8.41v-8.65c0-.22.11-.35.35-.35h1.61c.24,0,.35.13.35.35v12.27c0,.22-.11.35-.35.35h-1.61Z"/>
    <path class="cls-1" d="m132.14,22.11c-.24.17-.37.13-.46,0-.28-.43-1.13-1.41-2.87-1.39-1.52-.02-2.33.74-2.35,1.69.02,2.96,7.17.85,7.17,5.85,0,1.87-1.45,3.69-4.82,3.69s-4.69-1.74-5.09-2.39c-.09-.17-.07-.35.09-.48l.89-.83c.17-.17.35-.19.48,0,.41.52,1.59,1.78,3.63,1.78,1.48,0,2.39-.65,2.39-1.69,0-3.22-7.21-.85-7.21-5.91,0-1.98,1.65-3.67,4.65-3.67s4.26,1.48,4.65,2.15c.09.15.15.32-.11.5l-1.04.7Z"/>
    <path class="cls-1" d="m143.57,19.22c0-.22.11-.35.33-.35h1.63c.22,0,.35.13.35.35v7.26c0,4.13-2.2,5.47-4.93,5.47s-4.97-1.33-4.97-5.47l.02-7.26c0-.22.11-.35.35-.35h1.63c.22,0,.33.13.33.35v7.45c0,2.04.82,3.22,2.63,3.22s2.61-1.19,2.61-3.22v-7.45Z"/>
    <path class="cls-1" d="m159.77,31.45c0,.15-.07.26-.3.35-.2.07-.5.11-.94.11-3.85.02-2.87-5.04-5.63-5.04h-1.58v4.61c0,.22-.13.35-.35.35h-1.63c-.22,0-.35-.13-.35-.35v-12.27c0-.22.13-.35.35-.35h4.13c3.09,0,4.78,1.17,4.78,4.02,0,1.93-1.22,2.95-2.3,3.32,1.41,1.04,1.52,3.82,3.26,3.85h.28c.19,0,.28.09.28.32v1.07Zm-6.58-6.34c1.58,0,2.76-.74,2.76-2.15s-.94-2.21-2.58-2.21h-2.06v4.35h1.87Z"/>
    <path class="cls-1" d="m170.65,18.87c.22,0,.35.13.35.35v1.19c0,.22-.13.35-.37.35h-3.97v10.73c0,.22-.11.35-.33.35h-1.61c-.24,0-.35-.13-.35-.35v-10.73h-4.13c-.22,0-.35-.13-.35-.35v-1.19c0-.22.13-.35.37-.35h10.39Z"/>
    <path class="cls-1" d="m173.4,31.84c-.22,0-.35-.13-.35-.35v-12.27c0-.22.13-.35.35-.35h7.37c.22,0,.35.13.35.35v1.19c0,.24-.13.35-.35.35h-5.39v3.71h4.24c.22,0,.35.13.35.35v1.19c0,.22-.13.33-.37.33h-4.23v3.61h5.39c.22,0,.35.11.35.35v1.19c0,.22-.15.35-.35.35h-7.37Z"/>
    <path class="cls-1" d="m193.25,29.26c.22.22.2.41.07.57-.48.63-1.89,2.11-4.43,2.11-3.5,0-6-2.15-6-6.56s2.26-6.63,5.69-6.63c3.98,0,4.74,2.98,4.87,4.09.02.2-.06.33-.33.39l-1.41.22c-.32.06-.39-.07-.43-.28-.13-.7-.61-2.39-2.69-2.39-1.85,0-3.3,1.37-3.3,4.59s1.8,4.52,3.71,4.52c1.43,0,2.43-.94,2.89-1.45.17-.2.33-.28.52-.07l.83.87Z"/>
    <path class="cls-1" d="m205.89,31.48c0,.22-.13.35-.35.35h-1.63c-.22,0-.33-.13-.33-.35v-4.93h-5.32v4.93c0,.22-.13.35-.35.35h-1.63c-.22,0-.35-.13-.35-.35v-12.27c0-.22.13-.35.35-.35h1.63c.22,0,.35.13.35.35v5.43h5.32v-5.43c0-.22.11-.35.33-.35h1.63c.22,0,.35.13.35.35v12.27Z"/>
  </g>
  <g>
    <path class="cls-2" d="m48.85,37.57c.12,0,.19.05.19.19v.54c0,.12-.08.18-.21.18h-3.16v8.51c0,.12-.07.19-.19.19h-.69c-.12,0-.19-.07-.19-.19v-8.51h-3.24c-.12,0-.18-.05-.18-.18v-.54c0-.14.07-.19.19-.19h7.47Z"/>
    <path class="cls-2" d="m56.08,47.01c0,.12-.11.21-.48.21-.67,0-1.03-.38-1.03-1.08v-.16c-.32.67-1.03,1.29-2.28,1.29-1.37,0-2.1-.8-2.1-2.35v-4.16c0-.12.07-.19.19-.19h.66c.12,0,.19.07.19.19v4.04c0,1.19.58,1.59,1.39,1.59,1.29,0,1.84-1.3,1.84-1.91v-3.72c0-.12.05-.19.18-.19h.69c.12,0,.18.07.18.19v4.97c0,.3.07.6.41.67.1.03.16.05.16.23v.38Z"/>
    <path class="cls-2" d="m64.88,42.93c-.18,0-.18-.05-.16-.14.01-.1.03-.23.03-.4,0-.56-.41-1.04-1.54-1.04-1,0-1.5.43-1.5,1.08,0,1.81,4.04.36,4.04,2.92,0,1.15-.82,1.89-2.53,1.89s-2.51-.85-2.73-1.19c-.04-.08-.05-.14.01-.22l.43-.47c.08-.08.15-.04.19.01.27.33.91.99,2.06.99,1.02,0,1.55-.37,1.55-.97,0-1.59-4.05-.29-4.05-2.94,0-1.03.7-1.99,2.51-1.99,1.92,0,2.51.95,2.51,1.84,0,.21-.04.37-.1.48-.04.1-.14.14-.23.14h-.49Z"/>
    <path class="cls-2" d="m68.1,43.87v.14c.06,1.92,1.22,2.37,2.03,2.37.85,0,1.37-.45,1.61-.73.11-.12.18-.19.26-.11l.36.37c.08.08.1.16.04.25-.23.32-.93,1.1-2.39,1.1s-2.95-.92-2.95-3.39c0-2.31,1.08-3.39,2.91-3.39s2.48,1.17,2.48,3.16c0,.16-.04.23-.23.23h-4.12Zm3.36-.73c0-.99-.41-1.78-1.55-1.78-.95,0-1.65.52-1.78,1.78h3.34Z"/>
    <path class="cls-2" d="m77.38,46.48c1.43,0,2.5.63,2.5,1.94,0,1.24-.86,2.16-3.16,2.16-2.17,0-3.13-.76-3.13-2.03,0-1.13.88-1.51,1.11-1.62-.16-.11-.82-.33-.82-1.06,0-.65.4-.99.92-1.13-.18-.15-.84-.73-.84-1.77,0-1.54,1.25-2.48,2.73-2.48.59,0,1,.21,1.07.22,1.1.07,1.37-.6,1.46-1.02.03-.14.08-.18.22-.16l.44.07c.16.03.19.16.19.22-.08,1.08-.96,1.32-1.46,1.36.29.23.85.81.85,1.8,0,1.55-1.29,2.47-2.76,2.47-.6,0-1.04-.22-1.15-.26-.4,0-.73.19-.73.63,0,.55.49.67,1.17.67h1.39Zm-1.4.77c-.84,0-1.36.43-1.36,1.24s.59,1.21,2.05,1.21c1.56,0,2.2-.41,2.2-1.29,0-.77-.55-1.15-1.44-1.15h-1.44Zm.73-5.89c-.99,0-1.72.62-1.72,1.61s.71,1.61,1.7,1.61,1.76-.63,1.76-1.61-.76-1.61-1.74-1.61Z"/>
    <path class="cls-2" d="m87.07,47.01c0,.12-.11.21-.48.21-.67,0-1.03-.38-1.03-1.08v-.16c-.32.67-1.03,1.29-2.28,1.29-1.37,0-2.1-.8-2.1-2.35v-4.16c0-.12.07-.19.19-.19h.66c.12,0,.19.07.19.19v4.04c0,1.19.58,1.59,1.39,1.59,1.29,0,1.84-1.3,1.84-1.91v-3.72c0-.12.05-.19.18-.19h.69c.12,0,.18.07.18.19v4.97c0,.3.07.6.41.67.1.03.16.05.16.23v.38Z"/>
    <path class="cls-2" d="m88.82,42.01c0-.38-.1-.62-.43-.67-.04-.01-.14-.04-.14-.16v-.44c0-.14.14-.22.45-.22.52,0,1.02.29,1.02,1.03v.44c.22-.78.85-1.51,2.1-1.51.33,0,.58.07.71.11.1.04.14.1.08.19l-.29.65c-.05.1-.11.14-.21.1-.11-.04-.3-.1-.58-.1-1.15,0-1.69,1.14-1.7,1.98v3.58c0,.12-.04.19-.16.19h-.67c-.12,0-.19-.07-.19-.19v-4.97Z"/>
    <path class="cls-2" d="m93.55,43.87c0-2.16,1.15-3.39,2.9-3.39s2.91,1.24,2.91,3.39-1.14,3.39-2.91,3.39-2.9-1.24-2.9-3.39Zm4.78,0c0-1.69-.78-2.51-1.88-2.51s-1.87.82-1.87,2.51.78,2.51,1.87,2.51,1.88-.82,1.88-2.51Z"/>
    <path class="cls-2" d="m103.98,43.87c0-2.16,1.15-3.39,2.9-3.39s2.91,1.24,2.91,3.39-1.14,3.39-2.91,3.39-2.9-1.24-2.9-3.39Zm4.78,0c0-1.69-.78-2.51-1.88-2.51s-1.87.82-1.87,2.51.78,2.51,1.87,2.51,1.88-.82,1.88-2.51Z"/>
    <path class="cls-2" d="m111.63,41.99c0-.36-.1-.59-.41-.65-.07-.01-.15-.04-.15-.23v-.38c0-.14.11-.21.47-.21.54,0,1.02.36,1.02,1v.44c.22-.77.86-1.48,2.11-1.48,1.67,0,2.33,1.17,2.33,2.58v2.66c0,.4.11.62.4.67.05.01.16.07.16.22v.38c0,.15-.14.22-.48.22-.69,0-1.14-.41-1.14-1.37v-2.79c0-.97-.47-1.7-1.55-1.7-1.18,0-1.73,1.17-1.73,2.05v3.58c0,.12-.04.19-.16.19h-.67c-.12,0-.19-.07-.19-.19v-5Z"/>
    <path class="cls-2" d="m120.62,47.01c0,.14-.14.21-.47.21-.7,0-1.14-.41-1.14-1.37v-8.44c0-.12.06-.18.18-.18h.67c.12,0,.19.07.19.19v8.31c0,.4.1.63.4.67.05.01.16.04.16.18v.44Z"/>
    <path class="cls-2" d="m122.75,39.19c-.43,0-.76-.32-.76-.73s.33-.74.76-.74.76.32.76.74-.34.73-.76.73Zm1.06,7.82c0,.14-.14.21-.48.21-.69,0-1.13-.41-1.13-1.37v-5.15c0-.12.05-.18.18-.18h.67c.12,0,.19.07.19.19v5.01c0,.4.1.63.4.67.05.01.16.04.16.18v.44Z"/>
    <path class="cls-2" d="m125.56,41.99c0-.36-.1-.59-.41-.65-.07-.01-.15-.04-.15-.23v-.38c0-.14.11-.21.47-.21.54,0,1.02.36,1.02,1v.44c.22-.77.86-1.48,2.11-1.48,1.67,0,2.33,1.17,2.33,2.58v2.66c0,.4.11.62.4.67.05.01.16.07.16.22v.38c0,.15-.14.22-.48.22-.69,0-1.14-.41-1.14-1.37v-2.79c0-.97-.47-1.7-1.55-1.7-1.18,0-1.73,1.17-1.73,2.05v3.58c0,.12-.04.19-.16.19h-.67c-.12,0-.19-.07-.19-.19v-5Z"/>
    <path class="cls-2" d="m133.67,43.87v.14c.06,1.92,1.22,2.37,2.03,2.37.85,0,1.37-.45,1.61-.73.11-.12.18-.19.26-.11l.36.37c.08.08.1.16.04.25-.23.32-.93,1.1-2.39,1.1s-2.95-.92-2.95-3.39c0-2.31,1.08-3.39,2.91-3.39s2.48,1.17,2.48,3.16c0,.16-.04.23-.23.23h-4.12Zm3.36-.73c0-.99-.41-1.78-1.55-1.78-.95,0-1.65.52-1.78,1.78h3.34Z"/>
  </g>
</svg>