<?xml version="1.0" encoding="UTF-8"?>
<svg id="Layer_1" data-name="Layer 1" xmlns="http://www.w3.org/2000/svg" viewBox="0 0 200 40.04">
  <defs>
    <style>
      .cls-1 {
        fill: #863dff;
      }

      .cls-1, .cls-2 {
        stroke-width: 0px;
      }

      .cls-2 {
        fill: #0039a6;
      }
    </style>
  </defs>
  <path class="cls-2" d="M83.07,11.16c-2.02-1.2-4.39-1.8-7.13-1.8-2.54,0-4.8.63-6.79,1.9-1.99,1.27-3.55,2.97-4.67,5.11-1.12,2.14-1.69,4.48-1.69,7.02s.59,4.85,1.76,6.98c1.18,2.14,2.82,3.84,4.92,5.09,2.11,1.26,4.47,1.89,7.1,1.89,1.73,0,3.35-.27,4.86-.8,1.38-.49,3.82-2.04,3.82-2.04.43-.31.67-1.05.24-1.7-.42-.65-2.1-2.99-2.1-2.99h-.01c-.24-.36-.97-.75-1.68-.39-.67.34-1.72.87-2.15,1.03-.8.3-1.69.45-2.68.45s-1.99-.2-2.89-.61c-.9-.41-1.69-.99-2.36-1.75-.67-.76-1.15-1.66-1.46-2.71,0,0,17.7,0,17.71,0,.65,0,1.19-.47,1.3-1.09.01-.01.02-.02.02-.03.01-.18.02-.36.03-.53,0-.27.01-.55.01-.81,0-2.7-.52-5.11-1.58-7.23-1.05-2.12-2.58-3.78-4.6-4.98M70.11,20.46c.26-1.01.7-1.88,1.29-2.61s1.3-1.29,2.11-1.67c.82-.38,1.71-.57,2.68-.57s1.9.19,2.7.57c.8.38,1.48.93,2.02,1.66.55.73.96,1.6,1.22,2.62h-12.03,0Z"/>
  <path class="cls-2" d="M102.64,16.93c1.06-.65,2.2-.97,3.44-.97.98,0,1.87.14,2.66.41.66.23,1.98.98,2,.99.24.12.48.24.76.24.41,0,.77-.19,1.01-.48h0l.02-.04s.07-.09.1-.15l2.01-2.91c.21-.24.34-.54.34-.88,0-.39-.17-.74-.43-.99-.12-.11-2.6-1.58-3.85-2.02-1.51-.53-3.14-.79-4.89-.79-2.63,0-4.99.63-7.09,1.89-2.1,1.26-3.74,2.96-4.91,5.1-1.18,2.14-1.76,4.49-1.76,7.04s.59,4.87,1.77,7.01c1.18,2.14,2.82,3.83,4.91,5.08,2.09,1.25,4.44,1.88,7.04,1.88,1.79,0,3.46-.27,5.01-.81,1.33-.47,2.53-1.09,3.61-1.88h0s.04-.03.1-.08c.29-.25.48-.61.48-1.03,0-.29-.1-.56-.25-.78l-2.18-3.15h0c-.24-.31-.62-.51-1.04-.51-.34,0-.6.2-.88.34-.02.01-1.23.69-1.84.9-.78.27-1.67.41-2.66.41-1.23,0-2.38-.32-3.44-.96-1.06-.64-1.9-1.52-2.53-2.65-.63-1.13-.95-2.38-.95-3.76s.31-2.68.94-3.8c.62-1.13,1.46-2.01,2.52-2.66"/>
  <path class="cls-2" d="M63.9,11.25c-.04-.19-.2-.37-.46-.53-3.1-1.45-5.81-1.09-6.66-.79-.84.3-1.6.73-2.26,1.28-.66.55-1.24,1.22-1.74,2l-.99-2.58c-.18-.47-.51-.71-1.01-.71h-3.7c-.73,0-1.33.6-1.33,1.34v24.21c0,.74.6,1.34,1.33,1.34h4.52c.73,0,1.33-.6,1.33-1.34,0-.15-.02-12.12-.02-12.12,0-1.5.27-2.78.81-3.86.53-1.07,1.23-1.88,2.09-2.42.63-.4,2.04-1.02,3.23-.83.43.07,1.63.77,1.83.71.2-.06.37-.21.52-.47l2.4-4.56c.12-.25.15-.47.11-.67"/>
  <path class="cls-2" d="M38.79,10.02h-4.52c-.73,0-1.33.6-1.33,1.34v24.21c0,.74.6,1.34,1.33,1.34h4.52c.73,0,1.33-.6,1.33-1.34V11.37c0-.74-.6-1.34-1.33-1.34"/>
  <path class="cls-2" d="M38.79.15h-4.52c-.73,0-1.33.6-1.33,1.34v3.89c0,.74.6,1.34,1.33,1.34h4.52c.73,0,1.33-.6,1.33-1.34V1.49c0-.74-.6-1.34-1.33-1.34"/>
  <path class="cls-2" d="M128.46,9.91h-3.59V1.63s0-.09,0-.14c0-.74-.6-1.34-1.33-1.34-.02,0-.04,0-.06,0h-4.45c-.73,0-1.33.6-1.33,1.34,0,.02,0,.04,0,.05h0l.04,24.37c0,1.42-.04,4.22,1.84,7.26.4.65,2.89,3.76,2.92,3.79.14.18.31.33.53.42.38.16.79.13,1.14-.05l3.57-2.5c.29-.21.48-.36.6-.65.16-.38.13-.8-.05-1.15,0,0-1.65-2.07-2.11-2.82-1.26-2.04-1.32-4.95-1.32-4.95v-9h3.62c.71-.02,1.28-.58,1.31-1.29,0,.34,0-1.13,0-3.74,0-.74-.6-1.34-1.33-1.34"/>
  <path class="cls-2" d="M158.07,16.34c-1.25-2.15-2.96-3.85-5.12-5.1-2.16-1.25-4.53-1.88-7.11-1.88s-4.92.63-7.08,1.88c-2.17,1.25-3.88,2.95-5.13,5.1-1.25,2.15-1.88,4.51-1.88,7.08s.62,4.87,1.87,7.01c1.25,2.14,2.94,3.82,5.09,5.07,2.14,1.24,4.51,1.87,7.09,1.87s4.94-.62,7.11-1.87c2.17-1.24,3.89-2.94,5.15-5.07,1.26-2.14,1.89-4.47,1.89-7.01s-.63-4.92-1.88-7.08M151.85,26.95c-.62,1.07-1.46,1.91-2.52,2.53-1.07.62-2.22.93-3.47.93s-2.42-.31-3.48-.93c-1.06-.62-1.9-1.47-2.52-2.53-.62-1.07-.94-2.26-.94-3.58s.31-2.52.94-3.6c.62-1.08,1.46-1.93,2.51-2.53,1.05-.61,2.21-.91,3.49-.91s2.42.3,3.48.91c1.06.61,1.9,1.45,2.51,2.53.62,1.08.93,2.28.93,3.6s-.31,2.51-.93,3.58"/>
  <path class="cls-2" d="M26.05.15h-4.57c-.73,0-1.33.6-1.33,1.34v10.22c-.54-.47-1.14-.87-1.8-1.2-.65-.32-1.37-.58-2.15-.77-.78-.19-1.61-.28-2.51-.28-2.48,0-4.77.62-6.87,1.87-2.1,1.24-3.76,2.93-4.99,5.06-1.23,2.13-1.84,4.45-1.84,6.97s.61,4.92,1.84,7.05c1.23,2.14,2.88,3.83,4.97,5.08,2.09,1.25,4.38,1.88,6.89,1.88,1.01,0,1.95-.11,2.82-.35s1.65-.55,2.35-.97c.7-.41,1.34-.91,1.93-1.49l.51,1.51c.09.25.21.43.37.55s.37.17.64.17h3.74c.73,0,1.33-.6,1.33-1.34V1.49c0-.74-.6-1.34-1.33-1.34M19.72,27.06c-.6,1.06-1.41,1.88-2.46,2.48-1.04.6-2.19.9-3.44.9s-2.4-.3-3.41-.9c-1.01-.6-1.81-1.42-2.38-2.47-.57-1.04-.86-2.24-.86-3.59s.29-2.54.87-3.62c.58-1.08,1.38-1.92,2.4-2.52,1.02-.6,2.16-.9,3.43-.9s2.41.3,3.44.91c1.03.61,1.84,1.45,2.42,2.52.59,1.08.88,2.28.88,3.61s-.3,2.53-.89,3.58"/>
  <path class="cls-1" d="M181.31,23.58s0-.07,0-.1,0-.07,0-.1c0-.06-.01-.13-.03-.2h0c-.05-.25-.16-.46-.33-.64-1.13-1.54-11.02-14.97-11.1-15.08-.44-.6-1.27-.72-1.86-.28-.11.09-3.51,2.64-3.63,2.72-.59.44-.71,1.28-.27,1.88.06.08,5.31,7.22,8.61,11.69-3.29,4.48-8.55,11.62-8.61,11.7-.44.6-.31,1.44.27,1.88.11.09,3.51,2.64,3.63,2.72.59.44,1.42.32,1.86-.28.08-.11,9.97-13.54,11.1-15.08.17-.18.28-.4.33-.63h0c.01-.08.02-.14.03-.21"/>
  <path class="cls-1" d="M197.82,23.58s0-.07,0-.1,0-.07,0-.1c0-.06-.01-.13-.03-.2h0c-.05-.25-.16-.46-.33-.64-1.13-1.54-11.02-14.97-11.1-15.08-.44-.6-1.27-.72-1.86-.28-.11.09-3.51,2.64-3.63,2.72-.59.44-.71,1.28-.27,1.88.06.08,5.31,7.22,8.61,11.69-3.29,4.48-8.55,11.62-8.61,11.7-.44.6-.31,1.44.27,1.88.11.09,3.51,2.64,3.63,2.72.59.44,1.42.32,1.86-.28.08-.11,9.97-13.54,11.1-15.08.17-.18.28-.4.33-.63h0c.01-.08.02-.14.03-.21"/>
</svg>