<?xml version="1.0" encoding="UTF-8"?>
<svg id="Layer_1" data-name="Layer 1" xmlns="http://www.w3.org/2000/svg" viewBox="0 0 200 60">
  <defs>
    <style>
      .cls-1 {
        fill: #57b6b2;
      }

      .cls-1, .cls-2 {
        stroke-width: 0px;
      }

      .cls-2 {
        fill: #001689;
      }
    </style>
  </defs>
  <g>
    <path class="cls-2" d="m46.22,11.28c0-.3.08-.54.25-.71.16-.17.36-.27.59-.28h20.64c.33,0,.58.09.74.28.17.19.25.44.25.75v5.33c0,.24-.09.48-.26.7-.17.22-.42.33-.76.33h-13.11v6.69h9.68c.27,0,.5.08.69.23.19.15.28.39.28.72v5.15c0,.24-.08.48-.25.7-.17.22-.39.33-.68.33h-9.73v9.88c0,.62-.33.93-.99.93h-6.58c-.52-.07-.78-.37-.78-.91V11.28Z"/>
    <path class="cls-2" d="m72.38,11.24c0-.26.08-.48.24-.67.16-.19.4-.28.71-.28h6.34c.22,0,.45.09.69.26.24.17.37.4.37.69v30.13c0,.63-.35.95-1.06.95h-6.34c-.63,0-.95-.32-.95-.95V11.24Z"/>
    <path class="cls-2" d="m113.68,26.33c0,1.52-.19,2.97-.58,4.35-.39,1.37-.94,2.65-1.66,3.84-.72,1.19-1.58,2.26-2.58,3.22-1,.96-2.11,1.78-3.32,2.46-1.22.68-2.53,1.2-3.94,1.56-1.41.37-2.87.55-4.38.55h-10.63c-.26,0-.49-.06-.69-.17-.2-.11-.3-.36-.3-.73V11.28c0-.3.08-.55.25-.73.17-.19.41-.28.74-.28h10.63c1.51,0,2.97.19,4.37.56,1.4.37,2.71.91,3.92,1.6s2.33,1.52,3.33,2.48c1.01.96,1.87,2.04,2.58,3.24.71,1.19,1.27,2.48,1.66,3.86s.59,2.83.59,4.33Zm-19.73-8.32v16.58h1.81c.33,0,.65-.01.97-.03.32-.02.63-.05.95-.08,1.08-.09,2.08-.35,3.02-.79s1.75-1.01,2.45-1.73c.7-.71,1.24-1.55,1.64-2.51.39-.96.59-2.01.59-3.15,0-1.21-.23-2.32-.68-3.33-.45-1.01-1.07-1.89-1.84-2.63-.78-.74-1.69-1.32-2.73-1.73-1.04-.41-2.15-.61-3.33-.61h-2.85Z"/>
    <path class="cls-1" d="m137.94,39.47c-.97.99-2.09,1.77-3.37,2.33-1.28.57-2.67.85-4.16.85-1,0-1.97-.13-2.91-.4-.94-.26-1.82-.64-2.64-1.13s-1.57-1.07-2.24-1.74c-.67-.67-1.26-1.42-1.74-2.25s-.87-1.71-1.13-2.65c-.26-.94-.4-1.91-.4-2.92s.13-1.99.4-2.92c.26-.94.64-1.82,1.13-2.64.49-.82,1.07-1.57,1.74-2.24.67-.67,1.42-1.25,2.24-1.74.82-.48,1.7-.86,2.63-1.12s1.9-.4,2.92-.4c1.49,0,2.88.28,4.16.85,1.28.57,2.4,1.35,3.37,2.33v-2.06c0-.49.25-.74.74-.74h1.74c.53,0,.79.25.79.74v19.94c0,.23-.07.4-.22.54-.15.14-.32.2-.52.2h-1.75c-.24,0-.42-.07-.56-.22-.14-.15-.21-.32-.21-.52v-2.11Zm.17-7.9c0-1.06-.2-2.06-.61-3.03-.4-.96-.95-1.8-1.65-2.52-.7-.72-1.51-1.29-2.45-1.72s-1.93-.64-2.99-.64-2.05.21-2.97.64c-.93.43-1.73,1-2.42,1.72-.69.72-1.23,1.56-1.63,2.52-.4.96-.6,1.97-.6,3.03s.2,2.05.6,3.02.94,1.82,1.63,2.55,1.5,1.32,2.42,1.76c.93.44,1.92.66,2.97.66s2.05-.22,2.99-.66,1.75-1.03,2.45-1.76,1.25-1.59,1.65-2.55.61-1.97.61-3.02Z"/>
    <path class="cls-1" d="m145.76,21.53c.21.56.49,1.28.83,2.14.34.87.7,1.8,1.1,2.81.39,1.01.8,2.04,1.22,3.11.42,1.07.83,2.08,1.21,3.05.39.97.74,1.85,1.06,2.64.32.79.58,1.42.77,1.88.18-.46.43-1.09.74-1.88.31-.79.66-1.67,1.04-2.65s.77-1.99,1.19-3.06.82-2.1,1.21-3.11c.39-1.01.75-1.94,1.08-2.81.33-.86.6-1.58.82-2.14.08-.19.19-.34.34-.45s.33-.17.56-.17h1.87c.49,0,.74.2.74.59,0,.03,0,.07-.02.12-.01.04-.03.1-.05.15-.02.06-.04.12-.05.19l-8.01,19.75c-.03.06-.06.12-.09.19s-.07.14-.13.2c-.06.06-.14.12-.24.16-.1.04-.24.07-.42.07h-1.11c-.18,0-.32-.02-.42-.07s-.18-.1-.24-.16-.11-.13-.14-.2c-.03-.07-.06-.14-.09-.19l-8.11-19.74s-.02-.07-.03-.12c-.02-.09-.03-.2-.03-.34,0-.39.26-.59.78-.59h1.77c.22,0,.41.06.56.17.15.11.26.26.34.45Z"/>
    <path class="cls-1" d="m181.01,39.47c-.97.99-2.09,1.77-3.37,2.33-1.28.57-2.67.85-4.16.85-1,0-1.97-.13-2.91-.4-.94-.26-1.82-.64-2.64-1.13s-1.57-1.07-2.24-1.74-1.26-1.42-1.74-2.25-.87-1.71-1.13-2.65c-.26-.94-.4-1.91-.4-2.92s.13-1.99.4-2.92c.26-.94.64-1.82,1.13-2.64.49-.82,1.07-1.57,1.74-2.24.67-.67,1.42-1.25,2.24-1.74.82-.48,1.7-.86,2.63-1.12s1.9-.4,2.92-.4c1.49,0,2.88.28,4.16.85,1.28.57,2.4,1.35,3.37,2.33v-2.06c0-.49.25-.74.74-.74h1.74c.53,0,.79.25.79.74v19.94c0,.23-.07.4-.22.54-.15.14-.32.2-.52.2h-1.75c-.24,0-.42-.07-.56-.22-.14-.15-.21-.32-.21-.52v-2.11Zm.17-7.9c0-1.06-.2-2.06-.61-3.03-.4-.96-.95-1.8-1.65-2.52-.7-.72-1.51-1.29-2.45-1.72s-1.93-.64-2.99-.64-2.05.21-2.97.64c-.93.43-1.73,1-2.42,1.72-.69.72-1.23,1.56-1.63,2.52-.4.96-.6,1.97-.6,3.03s.2,2.05.6,3.02c.4.97.94,1.82,1.63,2.55s1.5,1.32,2.42,1.76c.93.44,1.92.66,2.97.66s2.05-.22,2.99-.66,1.75-1.03,2.45-1.76,1.25-1.59,1.65-2.55.61-1.97.61-3.02Z"/>
    <path class="cls-1" d="m191,41.57c0,.49-.25.74-.74.74h-1.74c-.53,0-.79-.25-.79-.74V15.3c0-.23.07-.4.22-.54.15-.14.32-.2.52-.2h1.75c.24,0,.42.07.56.22s.21.32.21.52v26.28Z"/>
  </g>
  <path class="cls-1" d="m1.94,52.81c-.12.09-.2.1-.24.07-.03-.02-.05-.09-.05-.19l-.07-18.13c0-.29.21-.67.49-.9l6.92-5.52,2.72,1.75-7.14,5.7v11.22s22.17-17.69,22.17-17.69L6.38,15.71l-.02-3.93s25.72,16.94,25.73,16.94c0,0-.01.01-.02.02L1.94,52.81Zm30.31-27.7s-.02,0-.03-.02L3.96,6.69l.04,11.25,17.7,11.42-14.81,11.82v-3.87s9.43-7.53,9.43-7.53L1.52,20.24c-.24-.16-.45-.56-.45-.88l-.07-18.12c0-.06,0-.17.06-.22.05-.04.14-.03.24.04l30.48,19.84c.24.16.45.56.45.89,0,0,.01,3.31.01,3.31Z"/>
  <g>
    <path class="cls-2" d="m48.19,54.96c0-.13.06-.19.19-.19h.45c.05,0,.1.02.14.05.04.03.06.08.06.14v1.94s0,.07-.02.1c-.01.03-.04.06-.07.08l-.03.03c-.27.2-.57.35-.9.45-.33.11-.68.16-1.06.16-.31,0-.6-.04-.89-.12-.28-.08-.55-.19-.79-.33-.25-.14-.47-.32-.67-.52-.2-.2-.37-.42-.52-.67-.14-.25-.25-.51-.33-.79-.08-.28-.12-.58-.12-.89s.04-.6.12-.88c.08-.28.19-.55.33-.79s.32-.47.52-.67.42-.38.67-.52c.25-.14.51-.26.79-.34.28-.08.58-.12.89-.12.36,0,.7.05,1.03.16.33.11.64.26.93.47.03.02.06.05.08.08.02.03.03.06.03.09,0,.04-.01.08-.03.1l-.23.38c-.05.07-.1.1-.15.1-.02,0-.04,0-.07-.02-.02,0-.05-.03-.08-.05-.21-.15-.44-.26-.68-.35-.25-.09-.51-.13-.79-.13-.36,0-.69.07-1,.2-.31.14-.57.32-.8.55-.23.23-.4.49-.53.79-.13.3-.19.61-.19.94,0,.35.07.67.2.97.13.3.31.56.53.78.22.22.48.4.78.52.3.13.61.19.95.19.21,0,.42-.03.63-.1.21-.07.42-.15.64-.24v-1.57Z"/>
    <path class="cls-2" d="m50.78,57.46s-.05.09-.09.12-.09.04-.14.04h-.46c-.13,0-.2-.05-.2-.15,0-.02,0-.04,0-.05,0-.01,0-.03,0-.04s0-.02,0-.03l2.51-6.03s.01-.03.02-.05c0-.02.02-.04.03-.05.01-.02.04-.03.06-.04s.06-.02.11-.02h.29s.08,0,.11.02.05.03.06.04c.01.02.03.03.03.05,0,.02.02.04.02.05l2.49,6.03v.04s.01.03.02.04c0,.01,0,.02,0,.03,0,.1-.07.15-.2.15h-.46c-.06,0-.11-.01-.14-.04s-.07-.07-.09-.12l-.48-1.2h-3.05c-.1.26-.19.49-.28.7s-.15.37-.19.5Zm.81-2.04h2.37l-1.17-2.98-1.2,2.98Z"/>
    <path class="cls-2" d="m56.66,51.37c0-.14.06-.21.19-.21h2.51c.29,0,.56.05.81.16.25.11.47.26.65.44.19.19.33.41.44.66.11.25.16.52.16.8,0,.2-.03.4-.08.59-.06.19-.14.36-.24.52s-.22.3-.37.43c-.14.13-.3.23-.47.32l1.15,2.35v.06c0,.09-.05.14-.16.14h-.53c-.09,0-.16-.05-.21-.16l-1.04-2.19s-.05,0-.08,0-.07,0-.12,0c-.05,0-.12,0-.2,0h-1.57v2.15c0,.13-.07.19-.2.19h-.45c-.13,0-.19-.06-.19-.19v-6.06Zm3.92,1.85c0-.16-.03-.31-.09-.46s-.15-.28-.26-.39-.24-.2-.39-.27c-.15-.07-.31-.1-.49-.1h-1.86v2.45h1.87c.17,0,.33-.03.48-.1s.28-.16.38-.27.19-.24.25-.39c.06-.15.09-.3.09-.47Z"/>
    <path class="cls-2" d="m63.16,57.46s-.05.09-.09.12-.09.04-.14.04h-.46c-.13,0-.2-.05-.2-.15,0-.02,0-.04,0-.05,0-.01,0-.03,0-.04s0-.02,0-.03l2.51-6.03s.01-.03.02-.05c0-.02.02-.04.03-.05.01-.02.04-.03.06-.04s.06-.02.11-.02h.29s.08,0,.11.02.05.03.06.04c.01.02.03.03.03.05,0,.02.02.04.02.05l2.49,6.03v.04s.01.03.02.04c0,.01,0,.02,0,.03,0,.1-.07.15-.2.15h-.46c-.06,0-.11-.01-.14-.04s-.07-.07-.09-.12l-.48-1.2h-3.05c-.1.26-.19.49-.28.7s-.15.37-.19.5Zm.81-2.04h2.37l-1.17-2.98-1.2,2.98Z"/>
    <path class="cls-2" d="m73.83,57.63c-.06,0-.12-.03-.17-.1l-3.8-5.09v4.99c0,.13-.07.19-.2.19h-.44c-.13,0-.19-.06-.19-.19v-6.07c0-.06.02-.11.05-.14s.08-.06.14-.06h.58c.08,0,.14.03.18.1l3.7,4.92v-4.85c.02-.11.08-.16.19-.16h.44c.05,0,.1.02.15.05.04.03.07.08.07.14v6.08c0,.13-.07.19-.21.19h-.5Z"/>
    <path class="cls-2" d="m80.13,51.16c.05,0,.1.02.14.05.04.03.07.08.07.14v.44c0,.06-.02.11-.05.15-.03.04-.09.06-.16.06h-1.81v5.42c0,.05-.02.1-.05.14s-.08.06-.15.06h-.44c-.05,0-.1-.02-.14-.06-.04-.04-.06-.09-.06-.14v-5.42h-1.82c-.06,0-.11-.02-.14-.05s-.06-.09-.06-.16v-.44c0-.06.02-.1.06-.14s.09-.05.14-.05h4.47Z"/>
    <path class="cls-2" d="m81.32,51.36c0-.05.02-.1.05-.13s.08-.06.14-.06h.45c.05,0,.1.02.14.05s.06.08.06.14v6.08c0,.13-.07.19-.2.19h-.45c-.13,0-.19-.06-.19-.19v-6.08Zm.88-.95c-.06.12-.13.18-.23.18h-.4c-.06,0-.1-.01-.12-.03s-.03-.05-.03-.09c0-.02.01-.04.01-.07,0-.02.01-.05.03-.09l.38-.89c.03-.06.07-.11.1-.14s.08-.04.13-.04h.43c.08,0,.11.03.11.1,0,.02,0,.05,0,.07s-.01.06-.03.09l-.4.91Z"/>
    <path class="cls-2" d="m84.09,57.46s-.05.09-.09.12-.09.04-.14.04h-.46c-.13,0-.2-.05-.2-.15,0-.02,0-.04,0-.05,0-.01,0-.03,0-.04s0-.02,0-.03l2.51-6.03s.01-.03.02-.05c0-.02.02-.04.03-.05.01-.02.04-.03.06-.04s.06-.02.11-.02h.29s.08,0,.11.02.05.03.06.04c.01.02.03.03.03.05,0,.02.02.04.02.05l2.49,6.03v.04s.01.03.02.04c0,.01,0,.02,0,.03,0,.1-.07.15-.2.15h-.46c-.06,0-.11-.01-.14-.04s-.07-.07-.09-.12l-.48-1.2h-3.05c-.1.26-.19.49-.28.7s-.15.37-.19.5Zm.81-2.04h2.37l-1.17-2.98-1.2,2.98Z"/>
    <path class="cls-2" d="m93.39,52.57s-.11-.08-.2-.15c-.09-.08-.21-.15-.34-.23s-.29-.15-.45-.21-.35-.09-.54-.09c-.23,0-.43.03-.59.08s-.3.13-.41.22c-.11.09-.19.19-.24.31-.05.11-.08.23-.08.35,0,.16.05.3.16.41s.25.21.43.29c.18.08.38.15.6.22.22.07.45.13.69.21s.46.15.69.24c.22.09.43.2.6.33.18.13.32.29.43.48s.16.41.16.67c0,.3-.06.58-.19.83-.13.25-.3.46-.52.63s-.48.31-.77.41c-.3.1-.61.14-.95.14-.23,0-.45-.03-.67-.08-.22-.05-.44-.12-.64-.22-.2-.1-.4-.22-.57-.35s-.33-.3-.47-.48c-.04-.05-.06-.09-.05-.14s.03-.09.08-.13l.34-.29s.1-.06.14-.05c.05,0,.09.03.13.08l.06.06c.12.14.26.25.42.35.16.1.31.18.47.25.16.07.3.11.45.15.14.03.26.05.36.05.18,0,.36-.02.54-.07s.36-.12.51-.21c.15-.1.28-.22.38-.36.1-.15.15-.32.15-.52,0-.17-.05-.31-.15-.42-.1-.11-.23-.21-.39-.3-.17-.09-.36-.16-.58-.23-.22-.07-.46-.14-.71-.22-.35-.1-.65-.21-.9-.32-.25-.11-.45-.23-.62-.37-.16-.13-.28-.29-.35-.45-.08-.17-.11-.35-.11-.56,0-.26.05-.51.16-.72.11-.22.26-.41.45-.57.19-.16.43-.28.7-.37.27-.09.58-.13.92-.13.18,0,.37.02.57.07.2.05.39.11.58.19.19.08.36.18.53.3.16.11.31.24.42.38.04.04.06.09.06.14,0,.05-.02.09-.07.14l-.31.3s-.09.06-.14.06-.09-.02-.13-.07Z"/>
    <path class="cls-2" d="m98.21,51.37c0-.14.07-.21.2-.21h2.16c.29,0,.55.05.8.16.25.11.46.25.64.44.18.18.32.4.42.64.1.25.15.5.15.78s-.05.52-.15.76-.24.45-.42.64c-.18.18-.39.33-.63.44s-.51.16-.79.16h-1.54v2.25c0,.13-.06.19-.19.19h-.46c-.13,0-.19-.06-.19-.19v-6.06Zm3.53,1.8c0-.15-.03-.3-.09-.44s-.14-.27-.25-.38c-.11-.11-.23-.2-.37-.26-.14-.07-.29-.1-.46-.1h-1.52v2.36h1.52c.16,0,.31-.03.45-.1s.27-.15.37-.26.19-.23.25-.38c.06-.14.09-.29.09-.45Z"/>
    <path class="cls-2" d="m103.64,57.46s-.05.09-.09.12-.09.04-.14.04h-.46c-.13,0-.2-.05-.2-.15,0-.02,0-.04,0-.05,0-.01,0-.03,0-.04s0-.02,0-.03l2.51-6.03s.01-.03.02-.05c0-.02.02-.04.03-.05.01-.02.04-.03.06-.04s.06-.02.11-.02h.29s.08,0,.11.02.05.03.06.04c.01.02.03.03.03.05,0,.02.02.04.02.05l2.49,6.03v.04s.01.03.02.04c0,.01,0,.02,0,.03,0,.1-.07.15-.2.15h-.46c-.06,0-.11-.01-.14-.04s-.07-.07-.09-.12l-.48-1.2h-3.05c-.1.26-.19.49-.28.7s-.15.37-.19.5Zm.81-2.04h2.37l-1.17-2.98-1.2,2.98Z"/>
    <path class="cls-2" d="m109.51,51.37c0-.14.06-.21.19-.21h2.51c.29,0,.56.05.81.16.25.11.47.26.65.44.19.19.33.41.44.66.11.25.16.52.16.8,0,.2-.03.4-.08.59-.06.19-.14.36-.24.52s-.22.3-.37.43c-.14.13-.3.23-.47.32l1.15,2.35v.06c0,.09-.05.14-.16.14h-.53c-.09,0-.16-.05-.21-.16l-1.04-2.19s-.05,0-.08,0-.07,0-.12,0c-.05,0-.12,0-.2,0h-1.57v2.15c0,.13-.07.19-.2.19h-.45c-.13,0-.19-.06-.19-.19v-6.06Zm3.92,1.85c0-.16-.03-.31-.09-.46s-.15-.28-.26-.39-.24-.2-.39-.27c-.15-.07-.31-.1-.49-.1h-1.86v2.45h1.87c.17,0,.33-.03.48-.1s.28-.16.38-.27.19-.24.25-.39c.06-.15.09-.3.09-.47Z"/>
    <path class="cls-2" d="m116.02,57.46s-.05.09-.09.12-.09.04-.14.04h-.46c-.13,0-.2-.05-.2-.15,0-.02,0-.04,0-.05,0-.01,0-.03,0-.04s0-.02,0-.03l2.51-6.03s.01-.03.02-.05c0-.02.02-.04.03-.05.01-.02.04-.03.06-.04s.06-.02.11-.02h.29s.08,0,.11.02.05.03.06.04c.01.02.03.03.03.05,0,.02.02.04.02.05l2.49,6.03v.04s.01.03.02.04c0,.01,0,.02,0,.03,0,.1-.07.15-.2.15h-.46c-.06,0-.11-.01-.14-.04s-.07-.07-.09-.12l-.48-1.2h-3.05c-.1.26-.19.49-.28.7s-.15.37-.19.5Zm.81-2.04h2.37l-1.17-2.98-1.2,2.98Z"/>
    <path class="cls-2" d="m125.05,51.33c.04.11.1.26.17.44.07.18.15.38.24.61.09.23.19.47.29.72.1.26.21.52.32.78.11.26.21.52.31.77.1.25.2.49.29.7.09.22.16.4.23.57s.12.29.16.38c.03-.09.09-.22.15-.38s.15-.35.23-.57c.09-.21.18-.45.28-.7.1-.25.2-.51.31-.77s.21-.52.31-.78c.1-.26.2-.5.29-.72.09-.22.17-.43.24-.61.07-.18.13-.33.17-.44.02-.05.05-.09.09-.12s.09-.04.14-.04h.46c.14,0,.2.05.2.15,0,.01,0,.02,0,.03s0,.02,0,.04v.04s-2.5,6.03-2.5,6.03c0,.02-.01.03-.02.05,0,.02-.02.04-.03.05-.01.02-.04.03-.06.04s-.06.02-.11.02h-.29s-.08,0-.11-.02-.05-.03-.06-.04c-.01-.02-.03-.03-.03-.05,0-.02-.02-.04-.02-.05l-2.51-6.03s0-.02,0-.03c0-.02,0-.05,0-.09,0-.1.07-.15.2-.15h.46c.06,0,.11.01.14.04s.07.07.08.12Z"/>
    <path class="cls-2" d="m135.25,51.16c.13,0,.2.07.2.21v.43c0,.06-.02.1-.05.14s-.09.06-.16.06h-3.51v1.79h2.76c.05,0,.1.02.13.05.04.03.06.08.06.15v.44c0,.05-.02.1-.05.14-.03.04-.08.06-.14.06h-2.76v2.14h3.52c.13,0,.2.07.2.2v.45c0,.13-.06.19-.19.19h-4.19c-.13,0-.19-.06-.19-.18v-6.08c0-.13.06-.2.19-.2h4.17Z"/>
    <path class="cls-2" d="m136.48,51.37c0-.14.06-.21.19-.21h2.51c.29,0,.56.05.81.16.25.11.47.26.65.44.19.19.33.41.44.66.11.25.16.52.16.8,0,.2-.03.4-.08.59-.06.19-.14.36-.24.52s-.22.3-.37.43c-.14.13-.3.23-.47.32l1.15,2.35v.06c0,.09-.05.14-.16.14h-.53c-.09,0-.16-.05-.21-.16l-1.04-2.19s-.05,0-.08,0-.07,0-.12,0c-.05,0-.12,0-.2,0h-1.57v2.15c0,.13-.07.19-.2.19h-.45c-.13,0-.19-.06-.19-.19v-6.06Zm3.92,1.85c0-.16-.03-.31-.09-.46s-.15-.28-.26-.39-.24-.2-.39-.27c-.15-.07-.31-.1-.49-.1h-1.86v2.45h1.87c.17,0,.33-.03.48-.1s.28-.16.38-.27.19-.24.25-.39c.06-.15.09-.3.09-.47Z"/>
    <path class="cls-2" d="m146.66,51.16c.05,0,.1.02.14.05.04.03.07.08.07.14v.44c0,.06-.02.11-.05.15-.03.04-.09.06-.16.06h-1.81v5.42c0,.05-.02.1-.05.14s-.08.06-.15.06h-.44c-.05,0-.1-.02-.14-.06-.04-.04-.06-.09-.06-.14v-5.42h-1.82c-.06,0-.11-.02-.14-.05s-.06-.09-.06-.16v-.44c0-.06.02-.1.06-.14s.09-.05.14-.05h4.47Z"/>
    <path class="cls-2" d="m152.22,51.16c.13,0,.2.07.2.21v.43c0,.06-.02.1-.05.14s-.09.06-.16.06h-3.51v1.79h2.76c.05,0,.1.02.13.05.04.03.06.08.06.15v.44c0,.05-.02.1-.05.14-.03.04-.08.06-.14.06h-2.76v2.14h3.52c.13,0,.2.07.2.2v.45c0,.13-.06.19-.19.19h-4.19c-.13,0-.19-.06-.19-.18v-6.08c0-.13.06-.2.19-.2h4.17Z"/>
    <path class="cls-2" d="m161.2,51.71s.06.05.08.08c.02.03.03.06.03.09,0,.04-.01.08-.03.1l-.23.38c-.05.07-.1.1-.15.1-.02,0-.04,0-.07-.02-.02,0-.05-.03-.08-.05-.21-.15-.43-.26-.66-.34s-.47-.12-.73-.14c-.37,0-.72.07-1.04.2-.32.13-.59.32-.82.54-.23.23-.41.49-.54.79-.13.3-.2.62-.2.95,0,.35.07.68.2.98.13.3.31.56.54.78.22.22.49.39.78.51.3.12.61.18.94.18.12,0,.24,0,.36-.03s.24-.05.36-.09c.12-.04.25-.1.39-.16.13-.06.28-.15.43-.24.06-.03.1-.05.13-.05.05,0,.1.04.14.11l.25.41s.03.07.03.1c0,.07-.03.12-.1.17-.27.2-.57.35-.9.46-.33.11-.68.17-1.06.17-.31,0-.6-.04-.89-.12-.28-.08-.55-.19-.79-.33-.25-.14-.47-.32-.67-.52-.2-.2-.37-.42-.52-.67-.14-.25-.25-.51-.33-.79-.08-.28-.12-.58-.12-.89s.04-.6.12-.88c.08-.28.19-.55.33-.79s.32-.47.52-.67.43-.38.67-.52c.25-.14.51-.26.79-.33.28-.08.58-.12.89-.12.36,0,.71.05,1.03.16.32.11.63.26.92.47Z"/>
    <path class="cls-2" d="m162.37,51.37c0-.14.06-.21.19-.21h2.51c.29,0,.56.05.81.16.25.11.47.26.65.44.19.19.33.41.44.66.11.25.16.52.16.8,0,.2-.03.4-.08.59-.06.19-.14.36-.24.52s-.22.3-.37.43c-.14.13-.3.23-.47.32l1.15,2.35v.06c0,.09-.05.14-.16.14h-.53c-.09,0-.16-.05-.21-.16l-1.04-2.19s-.05,0-.08,0-.07,0-.12,0c-.05,0-.12,0-.2,0h-1.57v2.15c0,.13-.07.19-.2.19h-.45c-.13,0-.19-.06-.19-.19v-6.06Zm3.92,1.85c0-.16-.03-.31-.09-.46s-.15-.28-.26-.39-.24-.2-.39-.27c-.15-.07-.31-.1-.49-.1h-1.86v2.45h1.87c.17,0,.33-.03.48-.1s.28-.16.38-.27.19-.24.25-.39c.06-.15.09-.3.09-.47Z"/>
    <path class="cls-2" d="m172.71,51.16c.13,0,.2.07.2.21v.43c0,.06-.02.1-.05.14s-.09.06-.16.06h-3.51v1.79h2.76c.05,0,.1.02.13.05.04.03.06.08.06.15v.44c0,.05-.02.1-.05.14-.03.04-.08.06-.14.06h-2.76v2.14h3.52c.13,0,.2.07.2.2v.45c0,.13-.06.19-.19.19h-4.19c-.13,0-.19-.06-.19-.18v-6.08c0-.13.06-.2.19-.2h4.17Z"/>
    <path class="cls-2" d="m178.96,51.71s.06.05.08.08c.02.03.03.06.03.09,0,.04-.01.08-.03.1l-.23.38c-.05.07-.1.1-.15.1-.02,0-.04,0-.07-.02-.03,0-.05-.03-.08-.05-.21-.15-.43-.26-.66-.34s-.47-.12-.73-.14c-.37,0-.72.07-1.04.2-.32.13-.59.32-.82.54-.23.23-.41.49-.54.79-.13.3-.2.62-.2.95,0,.35.07.68.2.98.13.3.31.56.54.78s.49.39.78.51c.3.12.61.18.94.18.12,0,.24,0,.36-.03.12-.02.24-.05.36-.09.12-.04.25-.1.39-.16.13-.06.28-.15.43-.24.06-.03.1-.05.13-.05.05,0,.1.04.14.11l.25.41s.03.07.03.1c0,.07-.03.12-.1.17-.27.2-.57.35-.9.46-.33.11-.68.17-1.06.17-.31,0-.6-.04-.88-.12-.28-.08-.55-.19-.79-.33-.24-.14-.47-.32-.67-.52-.2-.2-.37-.42-.52-.67-.14-.25-.25-.51-.33-.79-.08-.28-.12-.58-.12-.89s.04-.6.12-.88c.08-.28.19-.55.33-.79s.32-.47.52-.67.43-.38.67-.52c.25-.14.51-.26.79-.33.28-.08.58-.12.88-.12.36,0,.71.05,1.03.16s.63.26.92.47Z"/>
    <path class="cls-2" d="m184.49,51.16c.13,0,.2.07.2.21v.43c0,.06-.02.1-.05.14-.03.04-.09.06-.16.06h-3.51v1.79h2.76c.05,0,.1.02.14.05.04.03.06.08.06.15v.44c0,.05-.02.1-.05.14-.03.04-.08.06-.14.06h-2.76v2.14h3.52c.13,0,.2.07.2.2v.45c0,.13-.06.19-.19.19h-4.19c-.13,0-.19-.06-.19-.18v-6.08c0-.13.06-.2.19-.2h4.17Z"/>
    <path class="cls-2" d="m185.72,51.37c0-.14.06-.21.19-.21h2.51c.29,0,.56.05.81.16.25.11.47.26.65.44.19.19.33.41.44.66.11.25.16.52.16.8,0,.2-.03.4-.09.59-.06.19-.14.36-.24.52-.1.16-.22.3-.37.43-.14.13-.3.23-.47.32l1.15,2.35v.06c0,.09-.05.14-.16.14h-.53c-.09,0-.16-.05-.21-.16l-1.04-2.19s-.05,0-.08,0-.07,0-.12,0c-.05,0-.12,0-.2,0h-1.57v2.15c0,.13-.07.19-.2.19h-.45c-.13,0-.19-.06-.19-.19v-6.06Zm3.92,1.85c0-.16-.03-.31-.09-.46-.06-.15-.15-.28-.26-.39-.11-.11-.24-.2-.39-.27-.15-.07-.31-.1-.49-.1h-1.86v2.45h1.87c.17,0,.33-.03.48-.1.15-.07.28-.16.38-.27s.19-.24.25-.39c.06-.15.09-.3.09-.47Z"/>
  </g>
</svg>