<?xml version="1.0" encoding="UTF-8"?>
<svg id="Layer_1" data-name="Layer 1" xmlns="http://www.w3.org/2000/svg" viewBox="0 0 200 70">
  <defs>
    <style>
      .cls-1 {
        fill-rule: evenodd;
      }

      .cls-1, .cls-2 {
        fill: #00945e;
        stroke-width: 0px;
      }
    </style>
  </defs>
  <g>
    <path class="cls-1" d="m97.15,22.31c.69-1.92,2.09-6.08,6.41-6.08,1.76,0,4.01,1.04,3.66,4.49-.05.66-.16,1.15-.27,1.59h-9.8Zm16.49,4.56c.4-1.75.52-2.41.6-3.23.74-7.29-3.2-12.32-10.27-12.32-9.86,0-15.3,9.03-16,15.94-.64,6.3,2.58,12.55,10.79,12.55,5.86,0,10.89-3.08,13.64-9.3l-6.78-.67c-.43.98-2.02,4.32-5.8,4.32-1.7,0-4.51-.88-4.08-5.26.05-.5.09-.88.37-2.03h17.52Z"/>
    <polygon class="cls-2" points="68.67 1.62 60.84 10.26 56.61 10.26 62.31 1.62 68.67 1.62"/>
    <path class="cls-1" d="m39.22,39.12l1.5-5.6c1.91-7.51,3.6-14.03,10.65-13.86l2.02-7.64c-3.61-.05-6.34.95-9.25,6.44l1.68-6.3h-7.32l-7.21,26.97h7.93Z"/>
    <polygon class="cls-1" points="56.34 39.12 63.55 12.15 55.74 12.15 48.54 39.12 56.34 39.12"/>
    <path class="cls-1" d="m87.28,24.97h-12.48l-1.33,5h5.67c-.44,1.2-1.85,4.93-5.86,4.93-.46,0-1.94-.04-2.94-.82-1.49-1.17-1.73-3.44-1.56-5.05.18-1.82.98-4.79,1.85-6.82,1.02-2.37,2.98-5.5,6.41-5.5s3.81,3.12,3.57,4.86l6.91-.95c-.46-6.2-4.54-8.99-9.76-8.99-9.65,0-15.76,8.52-16.58,16.75-.67,6.66,3.77,11.74,10.34,11.74,4.38,0,7.5-2.4,8.86-3.89l.37,3.72h2.56l3.98-14.97Z"/>
    <path class="cls-1" d="m126.52,11.88h-7.39l-7.26,27.23h7.88l3.59-13.48c.8-3.01.99-3.83,1.97-5.47.87-1.54,2.58-2.8,4.44-2.8.27,0,2.79,0,2.51,2.85-.07.6-.51,2.3-.69,3.02l-4.27,15.88h7.89l4.05-15.28c.87-3.19,1.04-3.84,1.16-5.04.4-3.94-1.89-7.4-6.54-7.4-2.74,0-5.99,1.38-8.73,5.64l1.38-5.14Z"/>
    <path class="cls-1" d="m191,19.04c-.15-1.15-.41-3.01-2.04-4.71-2.29-2.42-5.74-3.01-8.48-3.01-7.83,0-11.33,4.93-11.78,9.43-.67,6.62,5.46,7.72,8.81,8.26,2.69.49,4.41.76,4.23,2.69-.02.16-.29,2.85-4.67,2.85-1.2,0-2.82-.27-3.86-.88-1.49-.88-1.64-1.89-1.65-2.87l-6.71,1.13c.11,1.05.18,2.57,1.86,4.42,1.72,1.98,5.25,3.34,9.52,3.34,8.44,0,12.37-5.26,12.81-9.7.56-5.53-3.52-7.45-7.41-8.11-4.25-.71-5.71-.92-5.53-2.79.12-1.26,1.58-2.63,3.77-2.63.88,0,2.06.17,3.15.77,1.15.6,1.64,1.64,1.79,3.02l6.19-1.21Z"/>
    <path class="cls-1" d="m34.01,17.72C35.05,7.4,29.86,1,20.9,1,9.03,1,2.15,13.18,1.12,23.55c-.99,9.8,4.06,16.38,13.03,16.38,10.13,0,15.29-7.88,17.69-13.43.94-2.09,1.75-4.64,2.17-8.78m-8.33-1.25c-.26,2.6-.72,4.87-2.24,8.78-1.29,3.23-3.43,7.7-8.3,7.7-5.38,0-6.1-4.19-5.7-8.16.21-2.09,2.25-16.82,10.8-16.82,6.29,0,5.65,6.46,5.44,8.5"/>
    <path class="cls-1" d="m149.45,22.31c.68-1.92,2.09-6.08,6.42-6.08,1.75,0,4,1.04,3.65,4.49-.06.66-.16,1.15-.27,1.59h-9.8Zm16.5,4.56c.39-1.75.52-2.41.6-3.23.73-7.29-3.19-12.32-10.27-12.32-9.86,0-15.31,9.03-15.99,15.94-.64,6.3,2.58,12.55,10.79,12.55,5.86,0,10.89-3.08,13.64-9.3l-6.78-.67c-.43.98-2.03,4.32-5.8,4.32-1.7,0-4.52-.88-4.07-5.26.04-.5.08-.88.36-2.03h17.53Z"/>
  </g>
  <g>
    <path class="cls-2" d="m22.61,65.57l1.08-1.29c.99.86,1.96,1.33,3.23,1.33,1.11,0,1.81-.53,1.81-1.29v-.03c0-.72-.41-1.14-2.31-1.56-2.18-.51-3.41-1.18-3.41-3.06v-.03c0-1.75,1.46-2.97,3.5-2.97,1.51,0,2.66.45,3.72,1.29l-.97,1.36c-.94-.69-1.84-1.05-2.78-1.05-1.05,0-1.67.53-1.67,1.21v.03c0,.79.47,1.14,2.44,1.61,2.15.56,3.28,1.29,3.28,3v.03c0,1.93-1.51,3.06-3.66,3.06-1.58,0-3.04-.53-4.27-1.64Z"/>
    <path class="cls-2" d="m31.84,56.83h7.59v1.61h-5.79v2.66h5.13v1.62h-5.13v2.74h5.86v1.61h-7.66v-10.24Z"/>
    <path class="cls-2" d="m40.37,61.98v-.03c0-2.87,2.18-5.29,5.28-5.29,1.77,0,2.88.5,3.93,1.39l-1.14,1.36c-.79-.67-1.58-1.08-2.87-1.08-1.87,0-3.32,1.64-3.32,3.6v.03c0,2.11,1.39,3.66,3.48,3.66.98,0,1.84-.31,2.47-.78v-1.9h-2.62v-1.58h4.36v4.3c-1.02.86-2.46,1.59-4.27,1.59-3.2,0-5.31-2.28-5.31-5.26Z"/>
    <path class="cls-2" d="m51.31,62.72v-5.89h1.8v5.82c0,1.92.96,2.91,2.59,2.91s2.57-.95,2.57-2.84v-5.89h1.8v5.81c0,3.06-1.73,4.59-4.4,4.59s-4.36-1.54-4.36-4.5Z"/>
    <path class="cls-2" d="m61.72,56.83h4.56c1.29,0,2.3.38,2.95,1.02.54.57.85,1.32.85,2.21v.03c0,1.68-1.01,2.69-2.43,3.1l2.76,3.88h-2.14l-2.52-3.57h-2.25v3.57h-1.8v-10.24Zm4.43,5.08c1.29,0,2.11-.66,2.11-1.71v-.03c0-1.11-.78-1.7-2.12-1.7h-2.62v3.44h2.63Z"/>
    <path class="cls-2" d="m71.03,61.98v-.03c0-2.87,2.22-5.29,5.37-5.29s5.34,2.38,5.34,5.26v.03c0,2.87-2.22,5.29-5.37,5.29s-5.34-2.38-5.34-5.26Zm8.82,0v-.03c0-1.99-1.43-3.63-3.48-3.63s-3.45,1.61-3.45,3.6v.03c0,1.99,1.43,3.63,3.48,3.63s3.45-1.61,3.45-3.6Z"/>
    <path class="cls-2" d="m82.33,65.57l1.08-1.29c.99.86,1.96,1.33,3.23,1.33,1.11,0,1.81-.53,1.81-1.29v-.03c0-.72-.41-1.14-2.31-1.56-2.18-.51-3.41-1.18-3.41-3.06v-.03c0-1.75,1.46-2.97,3.5-2.97,1.51,0,2.66.45,3.72,1.29l-.97,1.36c-.94-.69-1.84-1.05-2.78-1.05-1.05,0-1.67.53-1.67,1.21v.03c0,.79.47,1.14,2.44,1.61,2.15.56,3.28,1.29,3.28,3v.03c0,1.93-1.51,3.06-3.66,3.06-1.58,0-3.04-.53-4.27-1.64Z"/>
    <path class="cls-2" d="m95.13,56.83h3.82c3.22,0,5.44,2.21,5.44,5.09v.03c0,2.88-2.22,5.12-5.44,5.12h-3.82v-10.24Zm1.8,1.64v6.96h2.02c2.15,0,3.55-1.45,3.55-3.45v-.03c0-2-1.4-3.48-3.55-3.48h-2.02Z"/>
    <path class="cls-2" d="m105.75,56.83h7.59v1.61h-5.79v2.66h5.13v1.62h-5.13v2.74h5.86v1.61h-7.66v-10.24Z"/>
    <path class="cls-2" d="m118.3,56.83h4.56c1.29,0,2.3.38,2.95,1.02.54.57.85,1.32.85,2.21v.03c0,1.68-1.01,2.69-2.43,3.1l2.76,3.88h-2.13l-2.52-3.57h-2.25v3.57h-1.8v-10.24Zm4.43,5.08c1.29,0,2.11-.66,2.11-1.71v-.03c0-1.11-.78-1.7-2.12-1.7h-2.62v3.44h2.63Z"/>
    <path class="cls-2" d="m128.06,56.83h7.59v1.61h-5.79v2.66h5.13v1.62h-5.13v2.74h5.86v1.61h-7.66v-10.24Z"/>
    <path class="cls-2" d="m139.53,58.5h-3.26v-1.67h8.32v1.67h-3.26v8.57h-1.8v-8.57Z"/>
    <path class="cls-2" d="m145.75,56.83h1.8v10.24h-1.8v-10.24Z"/>
    <path class="cls-2" d="m149.46,56.83h4.56c1.29,0,2.3.38,2.95,1.02.54.57.85,1.32.85,2.21v.03c0,1.68-1.01,2.69-2.43,3.1l2.76,3.88h-2.13l-2.52-3.57h-2.25v3.57h-1.8v-10.24Zm4.43,5.08c1.29,0,2.11-.66,2.11-1.71v-.03c0-1.11-.78-1.7-2.12-1.7h-2.62v3.44h2.63Z"/>
    <path class="cls-2" d="m158.76,61.98v-.03c0-2.87,2.22-5.29,5.37-5.29s5.34,2.38,5.34,5.26v.03c0,2.87-2.22,5.29-5.37,5.29s-5.34-2.38-5.34-5.26Zm8.82,0v-.03c0-1.99-1.43-3.63-3.48-3.63s-3.45,1.61-3.45,3.6v.03c0,1.99,1.43,3.63,3.48,3.63s3.45-1.61,3.45-3.6Z"/>
  </g>
</svg>