<?xml version="1.0" encoding="UTF-8"?>
<svg id="Layer_1" data-name="Layer 1" xmlns="http://www.w3.org/2000/svg" viewBox="0 0 200 65">
  <defs>
    <style>
      .cls-1 {
        fill: #616060;
      }

      .cls-1, .cls-2, .cls-3 {
        stroke-width: 0px;
      }

      .cls-2 {
        fill: #b7cbea;
      }

      .cls-3 {
        fill: #006098;
      }
    </style>
  </defs>
  <g>
    <path class="cls-1" d="m19.35,54.82h6.31v1.71h-8.11v-13.58h8.02v1.71h-6.21v4.17h5.72v1.69h-5.72v4.31Z"/>
    <path class="cls-1" d="m28.3,56.53v-14.17h1.69v14.17h-1.69Z"/>
    <path class="cls-1" d="m47.32,42.94h1.8v13.58h-1.46l-6.99-10.15v10.15h-1.8v-13.58h1.4l7.05,10.2v-10.2Z"/>
    <path class="cls-1" d="m59.2,46.83h1.69v9.7h-1.69v-1.4c-.69,1.1-1.73,1.65-3.14,1.65-1.14,0-2.05-.36-2.74-1.08-.69-.72-1.03-1.69-1.03-2.92v-5.96h1.69v5.86c0,.79.21,1.4.64,1.83.43.43,1.02.65,1.77.65.84,0,1.52-.26,2.04-.79.52-.52.78-1.33.78-2.42v-5.14Z"/>
    <path class="cls-1" d="m65.27,52.45c.17.87.57,1.54,1.19,2.02.63.48,1.4.72,2.32.72,1.28,0,2.21-.47,2.79-1.42l1.44.82c-.94,1.46-2.37,2.19-4.27,2.19-1.54,0-2.79-.48-3.76-1.45-.96-.96-1.45-2.18-1.45-3.66s.47-2.68,1.42-3.65c.94-.97,2.17-1.46,3.67-1.46,1.42,0,2.58.5,3.48,1.5.9,1,1.35,2.21,1.35,3.62,0,.25-.02.5-.06.76h-8.13Zm3.36-4.29c-.91,0-1.66.26-2.25.77-.6.51-.96,1.19-1.11,2.05h6.48c-.14-.92-.5-1.62-1.09-2.1-.58-.48-1.26-.72-2.04-.72Z"/>
    <path class="cls-1" d="m82.44,46.83h1.82l-3.88,9.7h-1.98l-3.88-9.7h1.82l3.05,7.88,3.05-7.88Z"/>
    <path class="cls-1" d="m94.15,55.31c-1,.98-2.21,1.47-3.63,1.47s-2.63-.49-3.62-1.47c-.99-.98-1.48-2.19-1.48-3.63s.49-2.65,1.48-3.63c.99-.98,2.2-1.47,3.62-1.47s2.63.49,3.63,1.47c1,.98,1.49,2.19,1.49,3.63s-.5,2.65-1.49,3.63Zm-3.63-.17c.97,0,1.79-.33,2.45-.99.66-.66.99-1.48.99-2.46s-.33-1.8-.99-2.46c-.66-.66-1.48-.99-2.45-.99s-1.77.33-2.43.99c-.66.66-.99,1.48-.99,2.46s.33,1.8.99,2.46c.66.66,1.47.99,2.43.99Z"/>
    <path class="cls-1" d="m105.75,54.82h5.86v1.71h-7.67v-13.58h1.8v11.88Z"/>
    <path class="cls-1" d="m114.68,52.45c.17.87.57,1.54,1.19,2.02.63.48,1.4.72,2.32.72,1.28,0,2.21-.47,2.79-1.42l1.44.82c-.94,1.46-2.37,2.19-4.27,2.19-1.54,0-2.79-.48-3.76-1.45-.96-.96-1.45-2.18-1.45-3.66s.47-2.68,1.42-3.65c.94-.97,2.17-1.46,3.67-1.46,1.42,0,2.58.5,3.48,1.5.9,1,1.35,2.21,1.35,3.62,0,.25-.02.5-.06.76h-8.13Zm3.36-4.29c-.91,0-1.66.26-2.25.77-.6.51-.96,1.19-1.11,2.05h6.48c-.14-.92-.5-1.62-1.09-2.1-.58-.48-1.26-.72-2.04-.72Z"/>
    <path class="cls-1" d="m133.46,46.83h1.69v9.7h-1.69v-1.67c-.84,1.28-2.06,1.92-3.67,1.92-1.36,0-2.52-.49-3.47-1.48-.96-.99-1.44-2.2-1.44-3.62s.48-2.63,1.44-3.62c.96-.99,2.12-1.48,3.47-1.48,1.6,0,2.83.64,3.67,1.92v-1.67Zm-3.45,8.33c.98,0,1.8-.33,2.46-1,.66-.67.99-1.49.99-2.47s-.33-1.81-.99-2.47c-.66-.67-1.48-1-2.46-1s-1.79.33-2.45,1c-.66.67-.99,1.49-.99,2.47s.33,1.81.99,2.47c.66.67,1.47,1,2.45,1Z"/>
    <path class="cls-1" d="m139.79,49.42c0,.37.19.66.57.88.38.22.84.41,1.36.56.53.16,1.06.31,1.59.47s.99.45,1.35.88c.37.43.55.98.55,1.66,0,.88-.34,1.59-1.02,2.12-.68.53-1.55.8-2.61.8-.94,0-1.75-.21-2.43-.62-.67-.41-1.15-.96-1.44-1.65l1.46-.83c.16.47.45.83.87,1.11.43.27.94.41,1.53.41.56,0,1.02-.11,1.38-.32s.54-.55.54-1c0-.37-.19-.67-.56-.9-.38-.23-.83-.42-1.35-.58-.53-.16-1.06-.32-1.59-.48s-.99-.45-1.36-.86c-.38-.41-.56-.94-.56-1.59,0-.84.33-1.53.98-2.08.65-.54,1.47-.82,2.45-.82.79,0,1.49.18,2.11.53.61.36,1.08.85,1.39,1.48l-1.42.8c-.35-.83-1.04-1.24-2.08-1.24-.48,0-.89.11-1.22.33-.34.22-.5.53-.5.94Z"/>
    <path class="cls-1" d="m148.62,45.06c-.32,0-.6-.11-.82-.33-.22-.22-.33-.49-.33-.8s.11-.58.33-.81c.22-.23.49-.34.82-.34s.58.11.8.34c.22.23.33.49.33.81s-.11.58-.33.8-.49.33-.8.33Zm-.85,11.47v-9.7h1.69v9.7h-1.69Z"/>
    <path class="cls-1" d="m157.51,46.57c1.14,0,2.05.36,2.74,1.08.69.72,1.03,1.69,1.03,2.92v5.96h-1.69v-5.86c0-.79-.21-1.4-.64-1.83-.43-.43-1.02-.65-1.77-.65-.84,0-1.52.26-2.04.79-.52.52-.78,1.33-.78,2.42v5.14h-1.69v-9.7h1.69v1.4c.69-1.1,1.73-1.65,3.14-1.65Z"/>
    <path class="cls-1" d="m172.32,46.83h1.67v9.3c0,1.44-.49,2.55-1.46,3.35s-2.13,1.19-3.49,1.19c-1.09,0-2.03-.2-2.81-.61-.79-.41-1.38-.99-1.79-1.76l1.47-.83c.53,1.09,1.58,1.63,3.16,1.63,1.01,0,1.8-.27,2.38-.8.58-.53.86-1.26.86-2.17v-1.38c-.85,1.29-2.07,1.94-3.65,1.94-1.38,0-2.56-.49-3.51-1.47-.96-.98-1.44-2.18-1.44-3.59s.48-2.6,1.44-3.58c.96-.98,2.13-1.47,3.51-1.47,1.59,0,2.81.64,3.65,1.92v-1.67Zm-5.92,7.26c.66.66,1.48.99,2.46.99s1.8-.33,2.46-.99c.66-.66.99-1.48.99-2.46s-.33-1.79-.99-2.45c-.66-.66-1.48-.99-2.46-.99s-1.8.33-2.46.99c-.66.66-.99,1.47-.99,2.45s.33,1.8.99,2.46Z"/>
  </g>
  <g>
    <g>
      <path class="cls-3" d="m77.25,29c-3.94,0-7.21-1.31-9.81-3.93-2.6-2.62-3.9-5.88-3.9-9.77s1.3-7.15,3.9-9.77c2.6-2.62,5.87-3.93,9.81-3.93,2.36,0,4.54.55,6.55,1.64,2.01,1.09,3.59,2.58,4.74,4.46l-5.19,3.01c-.58-1.03-1.41-1.83-2.48-2.39-1.08-.56-2.28-.85-3.61-.85-2.33,0-4.2.72-5.59,2.15s-2.09,3.33-2.09,5.68.7,4.25,2.09,5.68,3.26,2.15,5.59,2.15c1.33,0,2.54-.29,3.63-.87,1.09-.58,1.91-1.37,2.47-2.37l5.19,3.01c-1.13,1.88-2.7,3.37-4.71,4.46-2.01,1.09-4.2,1.64-6.59,1.64Z"/>
      <path class="cls-3" d="m105.03,9.66h5.65v18.82h-5.65v-1.77c-1.33,1.53-3.2,2.3-5.61,2.3s-4.61-.96-6.36-2.88c-1.76-1.92-2.63-4.27-2.63-7.06s.88-5.14,2.63-7.06c1.76-1.92,3.88-2.88,6.36-2.88s4.28.77,5.61,2.3v-1.77Zm-7.72,12.76c.83.83,1.91,1.24,3.24,1.24s2.41-.41,3.24-1.24c.83-.83,1.24-1.94,1.24-3.35s-.41-2.52-1.24-3.35c-.83-.83-1.91-1.24-3.24-1.24s-2.41.41-3.24,1.24c-.83.83-1.24,1.94-1.24,3.35s.41,2.52,1.24,3.35Z"/>
      <path class="cls-3" d="m126.07,9.13c2.48,0,4.6.96,6.36,2.88,1.76,1.92,2.63,4.27,2.63,7.06s-.88,5.14-2.63,7.06c-1.76,1.92-3.88,2.88-6.36,2.88s-4.28-.77-5.61-2.3v9.3h-5.65V9.66h5.65v1.77c1.33-1.53,3.2-2.3,5.61-2.3Zm-4.35,13.29c.84.83,1.91,1.24,3.22,1.24s2.38-.41,3.22-1.24c.84-.83,1.26-1.94,1.26-3.35s-.42-2.52-1.26-3.35c-.84-.83-1.91-1.24-3.22-1.24s-2.38.41-3.22,1.24c-.84.83-1.26,1.94-1.26,3.35s.42,2.52,1.26,3.35Z"/>
      <path class="cls-3" d="m143.48,7c-.67.67-1.46,1-2.39,1s-1.73-.33-2.39-1c-.67-.66-1-1.46-1-2.39s.33-1.72,1-2.39c.66-.66,1.46-1,2.39-1s1.73.33,2.39,1c.66.67,1,1.46,1,2.39s-.33,1.73-1,2.39Zm-5.21,21.47V9.66h5.65v18.82h-5.65Z"/>
      <path class="cls-3" d="m159.08,15.08h-3.88v6.66c0,.75.3,1.23.9,1.43.6.2,1.59.26,2.97.19v5.12c-3.59.38-6.07.03-7.45-1.04-1.38-1.07-2.07-2.97-2.07-5.7v-6.66h-3.01v-5.42h3.01v-3.58l5.65-1.69v5.27h3.88v5.42Z"/>
      <path class="cls-3" d="m175.57,9.66h5.65v18.82h-5.65v-1.77c-1.33,1.53-3.2,2.3-5.61,2.3s-4.61-.96-6.36-2.88c-1.76-1.92-2.63-4.27-2.63-7.06s.88-5.14,2.63-7.06c1.76-1.92,3.88-2.88,6.36-2.88s4.28.77,5.61,2.3v-1.77Zm-7.72,12.76c.83.83,1.91,1.24,3.24,1.24s2.41-.41,3.24-1.24c.83-.83,1.24-1.94,1.24-3.35s-.41-2.52-1.24-3.35c-.83-.83-1.91-1.24-3.24-1.24s-2.41.41-3.24,1.24c-.83.83-1.24,1.94-1.24,3.35s.41,2.52,1.24,3.35Z"/>
      <path class="cls-3" d="m185.35,28.48V1h5.65v27.48h-5.65Z"/>
    </g>
    <path class="cls-3" d="m47.05,2.13c-.73,2.62-2.61,4.58-4.35,5.8h6.11v20.55h6.02V7.93h6.78V2.13h-14.56Z"/>
    <path class="cls-3" d="m23.26,9.8c1.55,2.18,4.25,3.59,8.04,4.2l6.5,1.04c.21.03.42.09.63.14l.2.05c2.94.54,5.63,2.5,7.32,5.36.48.81.84,1.66,1.11,2.54.1-4.93-.93-11.81-8.59-11.81h-7.99c-.19,0-.36,0-.53,0,0,0,0,0,0,0h-.09c-.68,0-1.21.04-1.59-.41-.34-.4-.52-.63-.52-1.22s.17-1.02.52-1.45c.39-.47.92-.53,1.59-.53h10.19s4.13-1.87,4.07-5.55h-15.25c-3.86,0-6,3.21-6.24,6.56.18.36.39.73.64,1.09Z"/>
    <path class="cls-2" d="m38.35,16.42c-.24-.06-.49-.13-.74-.17l-6.5-1.04c-11.78-1.88-10.71-10.72-10.44-12.25-.42,1.86-3.33,14.38,7.77,16.15l8.05,1.29c.19.03.37.06.53.08,0,0,0,0,0,0h.09c3.46.57,9.91,2.46,8.71,9.21,2.03-6-2.07-12.29-7.47-13.28Z"/>
    <path class="cls-3" d="m20.82,15.97c-.45-.66-.82-1.39-1.12-2.17h-7.57v5.27h9.92c-1,2.71-3.25,4.07-6.74,4.07-2.51,0-4.52-.72-6.02-2.16-1.51-1.44-2.26-3.31-2.26-5.59s.73-4.2,2.2-5.68c1.47-1.48,3.32-2.22,5.55-2.22,1.43,0,2.72.29,3.86.87.05.03.1.06.15.09,0-1.75.22-3.65.67-5.68l.08-.37c-1.51-.54-3.01-.78-4.72-.78-3.86,0-7.13,1.33-9.81,3.99C2.34,8.25,1,11.5,1,15.34s1.35,7.08,4.05,9.71c2.7,2.63,6.09,3.95,10.18,3.95,3.76,0,6.87-1.17,9.32-3.52,1.51-1.45,2.55-3.2,3.13-5.26-3.03-.6-5.34-2.03-6.86-4.26Z"/>
  </g>
</svg>