<?xml version="1.0" encoding="UTF-8"?>
<svg id="Layer_1" data-name="Layer 1" xmlns="http://www.w3.org/2000/svg" viewBox="0 0 200 60">
  <defs>
    <style>
      .cls-1 {
        fill: #f9a64a;
      }

      .cls-1, .cls-2, .cls-3, .cls-4, .cls-5, .cls-6, .cls-7 {
        stroke-width: 0px;
      }

      .cls-2 {
        fill: #231f20;
      }

      .cls-3 {
        fill: #317279;
      }

      .cls-4 {
        fill: #739da3;
      }

      .cls-5 {
        fill: #fff;
      }

      .cls-6 {
        fill: #ffe3ae;
      }

      .cls-7 {
        fill: #f26f21;
      }
    </style>
  </defs>
  <g>
    <g>
      <path class="cls-5" d="m22.69,24.03l-.03-13.59-6.66,11.19h-2.36l-6.63-10.9v13.3H2.09V1.39h4.33l8.48,14.07L23.24,1.39h4.3l.06,22.64h-4.92Z"/>
      <path class="cls-5" d="m56.99,19.83v4.21h-17.53V1.39h17.11v4.21h-11.9v4.92h10.51v4.08h-10.51v5.24h12.33Z"/>
      <path class="cls-5" d="m82.87,12.35h4.79v9.19c-2.49,1.88-5.92,2.88-9.15,2.88-7.12,0-12.36-4.88-12.36-11.71s5.24-11.71,12.45-11.71c3.98,0,7.28,1.36,9.48,3.91l-3.36,3.11c-1.65-1.75-3.56-2.56-5.86-2.56-4.4,0-7.41,2.94-7.41,7.25s3.01,7.25,7.34,7.25c1.42,0,2.75-.26,4.08-.97v-6.63Z"/>
      <path class="cls-5" d="m113.89,19.18h-10.51l-2.01,4.85h-5.37L106.1,1.39h5.18l10.13,22.64h-5.5l-2.01-4.85Zm-1.65-3.98l-3.59-8.67-3.59,8.67h7.18Z"/>
      <path class="cls-5" d="m154.4,26.46c-1.49,1.81-3.62,2.78-6.11,2.78-3.36,0-5.73-1.23-9.22-4.92-6.21-.78-10.58-5.47-10.58-11.61,0-6.73,5.24-11.71,12.39-11.71s12.39,4.95,12.39,11.71c0,5.31-3.27,9.51-8.09,11.06,1.1,1.16,2.07,1.59,3.2,1.59,1.39,0,2.62-.55,3.69-1.68l2.33,2.78Zm-13.52-6.5c4.04,0,7.08-2.94,7.08-7.25s-3.04-7.25-7.08-7.25-7.08,2.94-7.08,7.25,3.04,7.25,7.08,7.25Z"/>
      <path class="cls-5" d="m184.29,24.03l-.03-13.59-6.66,11.19h-2.36l-6.63-10.9v13.3h-4.92V1.39h4.33l8.48,14.07,8.35-14.07h4.3l.06,22.64h-4.92Z"/>
    </g>
    <g>
      <rect class="cls-5" x="18.63" y="18.83" width="4.06" height="37.6" transform="translate(58.29 16.97) rotate(90)"/>
      <rect class="cls-5" x="56.23" y="18.83" width="4.06" height="37.6" transform="translate(95.89 -20.63) rotate(90)"/>
      <rect class="cls-5" x="93.82" y="18.83" width="4.06" height="37.6" transform="translate(133.48 -58.23) rotate(90)"/>
      <rect class="cls-5" x="131.42" y="18.83" width="4.06" height="37.6" transform="translate(171.08 -95.83) rotate(90)"/>
      <rect class="cls-5" x="169.02" y="18.83" width="4.06" height="37.6" transform="translate(208.68 -133.43) rotate(90)"/>
    </g>
    <g>
      <path class="cls-5" d="m3.04,51.12v2.31h3.32v.81h-3.32v2.67h-.95v-6.62h4.67v.82h-3.72Z"/>
      <path class="cls-5" d="m8.19,53.61c0-1.94,1.49-3.38,3.53-3.38s3.51,1.44,3.51,3.38-1.49,3.38-3.51,3.38-3.53-1.45-3.53-3.38Zm6.09,0c0-1.47-1.1-2.54-2.56-2.54s-2.58,1.08-2.58,2.54,1.1,2.54,2.58,2.54,2.56-1.08,2.56-2.54Z"/>
      <path class="cls-5" d="m23.06,50.3v6.62h-.78l-3.97-4.93v4.93h-.95v-6.62h.78l3.97,4.93v-4.93h.95Z"/>
      <path class="cls-5" d="m25.76,50.3h2.79c2.13,0,3.57,1.34,3.57,3.31s-1.45,3.31-3.57,3.31h-2.79v-6.62Zm2.73,5.79c1.63,0,2.68-1,2.68-2.49s-1.05-2.49-2.68-2.49h-1.79v4.97h1.79Z"/>
      <path class="cls-5" d="m33.73,53.61c0-1.94,1.49-3.38,3.53-3.38s3.51,1.44,3.51,3.38-1.49,3.38-3.51,3.38-3.53-1.45-3.53-3.38Zm6.09,0c0-1.47-1.1-2.54-2.56-2.54s-2.58,1.08-2.58,2.54,1.1,2.54,2.58,2.54,2.56-1.08,2.56-2.54Z"/>
      <path class="cls-5" d="m42.31,56.16l.35-.74c.49.44,1.33.77,2.18.77,1.14,0,1.63-.44,1.63-1.02,0-1.62-4.01-.59-4.01-3.05,0-1.02.79-1.89,2.53-1.89.78,0,1.58.21,2.13.59l-.31.76c-.58-.37-1.23-.54-1.81-.54-1.12,0-1.61.47-1.61,1.05,0,1.62,4.01.6,4.01,3.03,0,1.01-.81,1.88-2.56,1.88-1.01,0-2-.34-2.53-.83Z"/>
      <path class="cls-5" d="m52.21,53.61c0-1.96,1.49-3.38,3.51-3.38,1.02,0,1.91.35,2.51,1.03l-.61.6c-.51-.54-1.13-.78-1.86-.78-1.49,0-2.6,1.08-2.6,2.54s1.11,2.54,2.6,2.54c.73,0,1.35-.26,1.86-.79l.61.6c-.6.68-1.49,1.04-2.52,1.04-2,0-3.5-1.43-3.5-3.38Z"/>
      <path class="cls-5" d="m59.61,53.61c0-1.94,1.49-3.38,3.53-3.38s3.51,1.44,3.51,3.38-1.49,3.38-3.51,3.38-3.53-1.45-3.53-3.38Zm6.09,0c0-1.47-1.1-2.54-2.56-2.54s-2.58,1.08-2.58,2.54,1.1,2.54,2.58,2.54,2.56-1.08,2.56-2.54Z"/>
      <path class="cls-5" d="m74.93,56.91v-4.82s-2.4,4.02-2.4,4.02h-.44l-2.39-3.99v4.79h-.91v-6.62h.78l2.76,4.65,2.72-4.65h.77v6.62s-.9,0-.9,0Z"/>
      <path class="cls-5" d="m78.47,54.06v-3.76h.94v3.72c0,1.46.67,2.13,1.86,2.13s1.87-.66,1.87-2.13v-3.72h.92v3.76c0,1.92-1.05,2.93-2.8,2.93s-2.8-1.01-2.8-2.93Z"/>
      <path class="cls-5" d="m92.4,50.3v6.62h-.78l-3.97-4.93v4.93h-.95v-6.62h.78l3.97,4.93v-4.93h.95Z"/>
      <path class="cls-5" d="m99.9,56.09v.82h-4.8v-6.62h4.67v.82h-3.72v2.03h3.32v.8h-3.32v2.14h3.86Z"/>
      <path class="cls-5" d="m101.53,56.16l.35-.74c.49.44,1.33.77,2.18.77,1.14,0,1.63-.44,1.63-1.02,0-1.62-4.01-.59-4.01-3.05,0-1.02.79-1.89,2.53-1.89.78,0,1.58.21,2.13.59l-.31.76c-.58-.37-1.23-.54-1.81-.54-1.12,0-1.61.47-1.61,1.05,0,1.62,4.01.6,4.01,3.03,0,1.01-.81,1.88-2.56,1.88-1.01,0-2-.34-2.53-.83Z"/>
      <path class="cls-5" d="m111.96,50.3h2.79c2.13,0,3.57,1.34,3.57,3.31s-1.45,3.31-3.57,3.31h-2.79v-6.62Zm2.73,5.79c1.63,0,2.68-1,2.68-2.49s-1.05-2.49-2.68-2.49h-1.79v4.97h1.79Z"/>
      <path class="cls-5" d="m125.28,56.09v.82h-4.8v-6.62h4.67v.82h-3.72v2.03h3.32v.8h-3.32v2.14h3.86Z"/>
      <path class="cls-5" d="m130.77,50.3h.95v6.62h-.95v-6.62Z"/>
      <path class="cls-5" d="m140.1,50.3v6.62h-.78l-3.97-4.93v4.93h-.95v-6.62h.78l3.97,4.93v-4.93h.95Z"/>
      <path class="cls-5" d="m148.47,50.3l-2.9,6.62h-.94l-2.91-6.62h1.02l2.38,5.43,2.4-5.43h.94Z"/>
      <path class="cls-5" d="m154.82,56.09v.82h-4.8v-6.62h4.67v.82h-3.72v2.03h3.32v.8h-3.32v2.14h3.86Z"/>
      <path class="cls-5" d="m161.48,56.91l-1.43-2.03c-.13,0-.27.02-.42.02h-1.63v2.01h-.95v-6.62h2.58c1.72,0,2.76.87,2.76,2.31,0,1.02-.53,1.76-1.46,2.09l1.57,2.22h-1.03Zm-.03-4.31c0-.94-.63-1.48-1.84-1.48h-1.61v2.98h1.61c1.21,0,1.84-.55,1.84-1.49Z"/>
      <path class="cls-5" d="m164.04,56.16l.35-.74c.49.44,1.33.77,2.18.77,1.14,0,1.63-.44,1.63-1.02,0-1.62-4.01-.59-4.01-3.05,0-1.02.79-1.89,2.53-1.89.78,0,1.58.21,2.13.59l-.31.76c-.58-.37-1.23-.54-1.81-.54-1.12,0-1.61.47-1.61,1.05,0,1.62,4.01.6,4.01,3.03,0,1.01-.81,1.88-2.56,1.88-1.01,0-2-.34-2.53-.83Z"/>
      <path class="cls-5" d="m171.22,50.3h.95v6.62h-.95v-6.62Z"/>
      <path class="cls-5" d="m174.32,53.61c0-1.94,1.49-3.38,3.53-3.38s3.51,1.44,3.51,3.38-1.49,3.38-3.51,3.38-3.53-1.45-3.53-3.38Zm6.09,0c0-1.47-1.1-2.54-2.56-2.54s-2.58,1.08-2.58,2.54,1.1,2.54,2.58,2.54,2.56-1.08,2.56-2.54Zm-1.98-5.07h1.15l-1.59,1.23h-.85l1.29-1.23Z"/>
      <path class="cls-5" d="m189.19,50.3v6.62h-.78l-3.97-4.93v4.93h-.95v-6.62h.78l3.97,4.93v-4.93h.95Z"/>
    </g>
  </g>
  <path class="cls-2" d="m22.84,24.05l-.03-13.59-6.66,11.19h-2.36l-6.63-10.9v13.3H2.23V1.41h4.33l8.48,14.07L23.39,1.41h4.3l.06,22.64h-4.92Z"/>
  <path class="cls-2" d="m57.13,19.84v4.21h-17.53V1.41h17.11v4.21h-11.9v4.92h10.51v4.08h-10.51v5.24h12.33Z"/>
  <path class="cls-2" d="m83.01,12.37h4.79v9.19c-2.49,1.88-5.92,2.88-9.15,2.88-7.12,0-12.36-4.88-12.36-11.71s5.24-11.71,12.45-11.71c3.98,0,7.28,1.36,9.48,3.91l-3.36,3.11c-1.65-1.75-3.56-2.56-5.86-2.56-4.4,0-7.41,2.94-7.41,7.25s3.01,7.25,7.34,7.25c1.42,0,2.75-.26,4.08-.97v-6.63Z"/>
  <path class="cls-2" d="m114.04,19.2h-10.51l-2.01,4.85h-5.37L106.24,1.41h5.18l10.13,22.64h-5.5l-2.01-4.85Zm-1.65-3.98l-3.59-8.67-3.59,8.67h7.18Z"/>
  <path class="cls-2" d="m154.54,26.48c-1.49,1.81-3.62,2.78-6.11,2.78-3.36,0-5.73-1.23-9.22-4.92-6.21-.78-10.58-5.47-10.58-11.61,0-6.73,5.24-11.71,12.39-11.71s12.39,4.95,12.39,11.71c0,5.31-3.27,9.51-8.09,11.06,1.1,1.16,2.07,1.59,3.2,1.59,1.39,0,2.62-.55,3.69-1.68l2.33,2.78Zm-13.52-6.5c4.04,0,7.08-2.94,7.08-7.25s-3.04-7.25-7.08-7.25-7.08,2.94-7.08,7.25,3.04,7.25,7.08,7.25Z"/>
  <path class="cls-2" d="m184.43,24.05l-.03-13.59-6.66,11.19h-2.36l-6.63-10.9v13.3h-4.92V1.41h4.33l8.48,14.07,8.35-14.07h4.3l.06,22.64h-4.92Z"/>
  <path class="cls-7" d="m17.95,18.64h4.11v35.95c0,1.13-.92,2.05-2.05,2.05h0c-1.13,0-2.05-.92-2.05-2.05V18.64h0Z" transform="translate(57.64 17.64) rotate(90)"/>
  <rect class="cls-1" x="55.95" y="18.64" width="4.11" height="38" transform="translate(95.64 -20.36) rotate(90)"/>
  <rect class="cls-6" x="93.95" y="18.64" width="4.11" height="38" transform="translate(133.64 -58.36) rotate(90)"/>
  <rect class="cls-4" x="131.95" y="18.64" width="4.11" height="38" transform="translate(171.64 -96.36) rotate(90)"/>
  <path class="cls-3" d="m172,18.64h0c1.13,0,2.05.92,2.05,2.05v35.95h-4.11V20.7c0-1.13.92-2.05,2.05-2.05Z" transform="translate(209.64 -134.36) rotate(90)"/>
  <path class="cls-2" d="m3.18,51.14v2.31h3.32v.81h-3.32v2.67h-.95v-6.62h4.67v.82h-3.72Z"/>
  <path class="cls-2" d="m8.33,53.62c0-1.94,1.49-3.38,3.53-3.38s3.51,1.44,3.51,3.38-1.49,3.38-3.51,3.38-3.53-1.45-3.53-3.38Zm6.09,0c0-1.47-1.1-2.54-2.56-2.54s-2.58,1.08-2.58,2.54,1.1,2.54,2.58,2.54,2.56-1.08,2.56-2.54Z"/>
  <path class="cls-2" d="m23.21,50.32v6.62h-.78l-3.97-4.93v4.93h-.95v-6.62h.78l3.97,4.93v-4.93h.95Z"/>
  <path class="cls-2" d="m25.9,50.32h2.79c2.13,0,3.57,1.34,3.57,3.31s-1.45,3.31-3.57,3.31h-2.79v-6.62Zm2.73,5.79c1.63,0,2.68-1,2.68-2.49s-1.05-2.49-2.68-2.49h-1.79v4.97h1.79Z"/>
  <path class="cls-2" d="m33.88,53.62c0-1.94,1.49-3.38,3.53-3.38s3.51,1.44,3.51,3.38-1.49,3.38-3.51,3.38-3.53-1.45-3.53-3.38Zm6.09,0c0-1.47-1.1-2.54-2.56-2.54s-2.58,1.08-2.58,2.54,1.1,2.54,2.58,2.54,2.56-1.08,2.56-2.54Z"/>
  <path class="cls-2" d="m42.46,56.18l.35-.74c.49.44,1.33.77,2.18.77,1.14,0,1.63-.44,1.63-1.02,0-1.62-4.01-.59-4.01-3.05,0-1.02.79-1.89,2.53-1.89.78,0,1.58.21,2.13.59l-.31.76c-.58-.37-1.23-.54-1.81-.54-1.12,0-1.61.47-1.61,1.05,0,1.62,4.01.6,4.01,3.03,0,1.01-.81,1.88-2.56,1.88-1.01,0-2-.34-2.53-.83Z"/>
  <path class="cls-2" d="m52.35,53.62c0-1.96,1.49-3.38,3.51-3.38,1.02,0,1.91.35,2.51,1.03l-.61.6c-.51-.54-1.13-.78-1.86-.78-1.49,0-2.6,1.08-2.6,2.54s1.11,2.54,2.6,2.54c.73,0,1.35-.26,1.86-.79l.61.6c-.6.68-1.49,1.04-2.52,1.04-2,0-3.5-1.43-3.5-3.38Z"/>
  <path class="cls-2" d="m59.75,53.62c0-1.94,1.49-3.38,3.53-3.38s3.51,1.44,3.51,3.38-1.49,3.38-3.51,3.38-3.53-1.45-3.53-3.38Zm6.09,0c0-1.47-1.1-2.54-2.56-2.54s-2.58,1.08-2.58,2.54,1.1,2.54,2.58,2.54,2.56-1.08,2.56-2.54Z"/>
  <path class="cls-2" d="m75.07,56.93v-4.82s-2.4,4.02-2.4,4.02h-.44l-2.39-3.99v4.79h-.91v-6.62h.78l2.76,4.65,2.72-4.65h.77v6.62s-.9,0-.9,0Z"/>
  <path class="cls-2" d="m78.61,54.08v-3.76h.94v3.72c0,1.46.67,2.13,1.86,2.13s1.87-.66,1.87-2.13v-3.72h.92v3.76c0,1.92-1.05,2.93-2.8,2.93s-2.8-1.01-2.8-2.93Z"/>
  <path class="cls-2" d="m92.54,50.32v6.62h-.78l-3.97-4.93v4.93h-.95v-6.62h.78l3.97,4.93v-4.93h.95Z"/>
  <path class="cls-2" d="m100.04,56.11v.82h-4.8v-6.62h4.67v.82h-3.72v2.03h3.32v.8h-3.32v2.14h3.86Z"/>
  <path class="cls-2" d="m101.67,56.18l.35-.74c.49.44,1.33.77,2.18.77,1.14,0,1.63-.44,1.63-1.02,0-1.62-4.01-.59-4.01-3.05,0-1.02.79-1.89,2.53-1.89.78,0,1.58.21,2.13.59l-.31.76c-.58-.37-1.23-.54-1.81-.54-1.12,0-1.61.47-1.61,1.05,0,1.62,4.01.6,4.01,3.03,0,1.01-.81,1.88-2.56,1.88-1.01,0-2-.34-2.53-.83Z"/>
  <path class="cls-2" d="m112.11,50.32h2.79c2.13,0,3.57,1.34,3.57,3.31s-1.45,3.31-3.57,3.31h-2.79v-6.62Zm2.73,5.79c1.63,0,2.68-1,2.68-2.49s-1.05-2.49-2.68-2.49h-1.79v4.97h1.79Z"/>
  <path class="cls-2" d="m125.42,56.11v.82h-4.8v-6.62h4.67v.82h-3.72v2.03h3.32v.8h-3.32v2.14h3.86Z"/>
  <path class="cls-2" d="m130.91,50.32h.95v6.62h-.95v-6.62Z"/>
  <path class="cls-2" d="m140.24,50.32v6.62h-.78l-3.97-4.93v4.93h-.95v-6.62h.78l3.97,4.93v-4.93h.95Z"/>
  <path class="cls-2" d="m148.61,50.32l-2.9,6.62h-.94l-2.91-6.62h1.02l2.38,5.43,2.4-5.43h.94Z"/>
  <path class="cls-2" d="m154.96,56.11v.82h-4.8v-6.62h4.67v.82h-3.72v2.03h3.32v.8h-3.32v2.14h3.86Z"/>
  <path class="cls-2" d="m161.63,56.93l-1.43-2.03c-.13,0-.27.02-.42.02h-1.63v2.01h-.95v-6.62h2.58c1.72,0,2.76.87,2.76,2.31,0,1.02-.53,1.76-1.46,2.09l1.57,2.22h-1.03Zm-.03-4.31c0-.94-.63-1.48-1.84-1.48h-1.61v2.98h1.61c1.21,0,1.84-.55,1.84-1.49Z"/>
  <path class="cls-2" d="m164.18,56.18l.35-.74c.49.44,1.33.77,2.18.77,1.14,0,1.63-.44,1.63-1.02,0-1.62-4.01-.59-4.01-3.05,0-1.02.79-1.89,2.53-1.89.78,0,1.58.21,2.13.59l-.31.76c-.58-.37-1.23-.54-1.81-.54-1.12,0-1.61.47-1.61,1.05,0,1.62,4.01.6,4.01,3.03,0,1.01-.81,1.88-2.56,1.88-1.01,0-2-.34-2.53-.83Z"/>
  <path class="cls-2" d="m171.36,50.32h.95v6.62h-.95v-6.62Z"/>
  <path class="cls-2" d="m174.46,53.62c0-1.94,1.49-3.38,3.53-3.38s3.51,1.44,3.51,3.38-1.49,3.38-3.51,3.38-3.53-1.45-3.53-3.38Zm6.09,0c0-1.47-1.1-2.54-2.56-2.54s-2.58,1.08-2.58,2.54,1.1,2.54,2.58,2.54,2.56-1.08,2.56-2.54Zm-1.98-5.07h1.15l-1.59,1.23h-.85l1.29-1.23Z"/>
  <path class="cls-2" d="m189.34,50.32v6.62h-.78l-3.97-4.93v4.93h-.95v-6.62h.78l3.97,4.93v-4.93h.95Z"/>
</svg>