<?xml version="1.0" encoding="UTF-8"?>
<svg id="Layer_1" data-name="Layer 1" xmlns="http://www.w3.org/2000/svg" xmlns:xlink="http://www.w3.org/1999/xlink" viewBox="0 0 190.21 65">
  <defs>
    <style>
      .cls-1 {
        fill: url(#linear-gradient);
      }

      .cls-1, .cls-2, .cls-3 {
        stroke-width: 0px;
      }

      .cls-2 {
        fill: #c78c0b;
      }

      .cls-3 {
        fill: #0039a6;
      }
    </style>
    <linearGradient id="linear-gradient" x1="167.29" y1="99.43" x2="167.29" y2="142.76" gradientTransform="translate(0 145.59) scale(1 -1)" gradientUnits="userSpaceOnUse">
      <stop offset="0" stop-color="#00c7b2"/>
      <stop offset="1" stop-color="#63ceca"/>
    </linearGradient>
  </defs>
  <rect class="cls-2" x="102.26" y="1" width="2.23" height="60"/>
  <g>
    <path class="cls-2" d="m117.18,53.2h1l2.38,5.48h-1.36l-.47-1.16h-2.13l-.46,1.16h-1.33l2.37-5.48Zm.46,1.6l-.67,1.7h1.34l-.67-1.7h0Z"/>
    <path class="cls-2" d="m122.97,53.2h1.64l2.33,3.81h.02v-3.81h1.21v5.48h-1.58l-2.39-3.9h-.02v3.9h-1.21v-5.48Z"/>
    <path class="cls-2" d="m131.12,53.2h1.21v5.48h-1.21v-5.48Z"/>
    <path class="cls-2" d="m134.75,53.2h1.38l1.35,3.59h.02l1.38-3.59h1.29l-2.26,5.48h-.97l-2.19-5.48h0Z"/>
    <path class="cls-2" d="m142.65,53.2h3.72v1.11h-2.52v1.02h2.38v1.11h-2.38v1.11h2.66v1.12h-3.86v-5.48h0Z"/>
    <path class="cls-2" d="m149.33,53.2h2.12c1.12,0,2.07.39,2.07,1.67,0,.77-.41,1.36-1.18,1.5l1.39,2.31h-1.45l-1.14-2.19h-.6v2.19h-1.21v-5.48h0Zm1.21,2.27h.71c.44,0,1.01-.02,1.01-.61,0-.55-.5-.64-.94-.64h-.79v1.25h0Z"/>
    <path class="cls-2" d="m158.92,54.54c-.19-.25-.58-.36-.88-.36-.34,0-.81.15-.81.57,0,1,2.52.36,2.52,2.28,0,1.22-.98,1.8-2.11,1.8-.71,0-1.32-.21-1.84-.69l.86-.94c.25.32.65.52,1.05.52s.84-.19.84-.57c0-1.01-2.57-.46-2.57-2.29,0-1.17,1.01-1.78,2.09-1.78.62,0,1.22.16,1.68.57l-.83.91h0Z"/>
    <path class="cls-2" d="m164.32,53.2h1l2.38,5.48h-1.36l-.47-1.16h-2.13l-.46,1.16h-1.33l2.37-5.48Zm.46,1.6l-.67,1.7h1.34l-.67-1.7h0Z"/>
    <path class="cls-2" d="m170.11,53.2h2.12c1.12,0,2.07.39,2.07,1.67,0,.77-.41,1.36-1.18,1.5l1.39,2.31h-1.45l-1.14-2.19h-.6v2.19h-1.21v-5.48h0Zm1.21,2.27h.71c.44,0,1.01-.02,1.01-.61,0-.55-.5-.64-.94-.64h-.79v1.25h0Z"/>
    <path class="cls-2" d="m176.97,53.2h1.21v5.48h-1.21v-5.48Z"/>
    <path class="cls-2" d="m183.8,53.06c1.71,0,2.96,1.12,2.96,2.88s-1.25,2.88-2.96,2.88-2.96-1.12-2.96-2.88,1.25-2.88,2.96-2.88Zm0,4.65c1.03,0,1.7-.74,1.7-1.77s-.67-1.77-1.7-1.77-1.7.74-1.7,1.77.67,1.77,1.7,1.77Z"/>
  </g>
  <g>
    <path class="cls-2" d="m142.55,46.16c0-2.74.27-5.23.73-7.51h-13.16l4.79-5.04c2.84-2.96,5.03-5.62,6.55-7.99.12,3.74.98,7.11,2.57,10.09,1.6-5.16,4.33-9.08,7.48-12.17.23-3.36,1.38-6.14,3.44-8.36,2.32-2.5,5.36-3.75,9.11-3.75,1.7,0,3.25.25,4.66.75,3.78-2.39,5.33-4.2,5.76-7.23-3.12-1.58-6.59-2.37-10.42-2.37-6.3,0-11.65,2.15-16.03,6.45-1.27,1.24-2.35,2.57-3.25,3.96-.26-1.41-.79-2.81-1.58-4.19-1.19-2.06-2.77-3.63-4.75-4.72-1.98-1.09-4.27-1.64-6.86-1.64-4.19,0-7.63,1.32-10.3,3.96-2.68,2.64-4.12,6.26-4.33,10.86h7.91c.08-2.22.7-3.98,1.85-5.27,1.16-1.3,2.61-1.94,4.35-1.94s3.13.54,4.22,1.61c1.09,1.07,1.64,2.43,1.64,4.07s-.53,3.36-1.58,5.32c-1.05,1.96-3.17,4.56-6.36,7.78l-13.19,13.45v3.88h26.77Z"/>
    <path class="cls-2" d="m185.01,21.79c-2.63,2.84-5.66,4.98-8.65,6.78-.48,2.53-1.51,4.68-3.12,6.4-2.3,2.47-5.36,3.7-9.19,3.7-.77,0-1.5-.05-2.21-.16-1.32,1.96-1.86,4.29-1.86,7.64v.97c1.25.2,2.56.29,3.9.29,6.42,0,11.84-2.14,16.25-6.41,4.39-4.3,6.58-9.63,6.58-15.99,0-1.64-.15-3.21-.44-4.71-.4.5-.81.98-1.25,1.46h0Z"/>
  </g>
  <path class="cls-1" d="m178.3,2.84c0,8.06-4.26,10.77-12.4,15.26-8.29,4.57-19.66,10.84-19.66,28.06h10.03c0-10.18,5.03-13.44,13.91-18.34,8.08-4.46,18.14-10,18.14-24.99h-10.03Z"/>
  <g>
    <path class="cls-3" d="m64.73,35.28c0-12-15.19-9.08-15.19-13.48,0-2.42,2.12-2.2,4.22-2.2h8.91v-7.87h-9.69c-5.6,0-12.79,2.05-12.79,9.93,0,10.66,15.19,8.58,15.19,13.06,0,2.01-1.94,2.29-4.62,2.29h-9.57v7.87h10.46c7-.01,13.09-1.79,13.09-9.6"/>
    <path class="cls-3" d="m19.83,11.69c-3.27,0-6.3.96-8.87,2.6V2.68H1.26v42.21h8.54v-3.5c1.94,1.79,6.41,3.72,10.03,3.72,9.17,0,16.6-7.43,16.6-16.6s-7.43-16.82-16.6-16.82m-.89,25.25c-4.74,0-8.58-3.84-8.58-8.58s3.84-8.8,8.58-8.8,8.58,4.07,8.58,8.8-3.84,8.58-8.58,8.58"/>
    <path class="cls-3" d="m89.09,19.57v-7.69h-8.16V2.69h-9.78v30.52c0,7.57,4.48,11.68,12.76,11.68h5.19v-7.98h-4.63c-2.52,0-3.54-1.9-3.54-4.54v-12.81h8.16Z"/>
    <path class="cls-3" d="m4.85,52.9c-.14-.23-.32-.39-.56-.49-.23-.1-.47-.15-.73-.15-.19,0-.37.02-.55.07s-.34.12-.48.21-.26.22-.34.37c-.09.15-.13.33-.13.54,0,.16.02.3.07.42.05.12.13.23.24.33s.27.19.46.28c.19.09.43.17.71.26.27.09.54.18.79.28.25.1.48.23.68.38s.35.34.47.57c.12.23.17.52.17.86s-.07.66-.21.92c-.14.26-.32.47-.55.64s-.49.3-.79.38c-.3.08-.61.13-.93.13-.21,0-.41-.02-.62-.06s-.4-.09-.59-.17c-.19-.08-.37-.18-.53-.3-.17-.12-.31-.27-.43-.45l.72-.59c.15.26.37.45.64.59.27.13.56.2.87.2.18,0,.36-.03.54-.08.18-.05.35-.13.49-.23.15-.1.27-.23.36-.38.09-.15.14-.33.14-.53,0-.22-.04-.4-.11-.53-.07-.14-.19-.25-.34-.35-.15-.1-.35-.19-.58-.27s-.51-.17-.82-.28c-.25-.08-.49-.17-.7-.27-.21-.1-.4-.23-.55-.38-.16-.15-.28-.33-.37-.54-.09-.21-.13-.46-.13-.75,0-.34.07-.63.2-.89.13-.25.31-.46.54-.63.23-.17.48-.3.77-.38.29-.09.58-.13.9-.13.4,0,.76.06,1.09.19.33.12.62.34.88.64l-.69.6h0Z"/>
    <path class="cls-3" d="m6.46,56.37c0-.37.06-.7.19-1,.13-.3.3-.56.52-.77.22-.22.48-.38.79-.5s.64-.18,1-.18.69.06,1,.18.57.29.79.5c.22.22.39.47.52.77s.19.63.19,1-.06.7-.19,1c-.13.3-.3.56-.52.77s-.48.38-.79.5c-.31.12-.64.18-1,.18s-.69-.06-1-.18-.57-.29-.79-.5c-.22-.22-.39-.47-.52-.77s-.19-.63-.19-1m.84,0c0,.25.04.47.12.68.08.21.19.39.33.55s.32.28.52.37c.2.09.43.13.68.13s.48-.05.68-.13c.2-.09.38-.21.52-.37s.26-.34.33-.55c.08-.21.12-.44.12-.68s-.04-.47-.12-.68c-.08-.21-.19-.39-.33-.55s-.32-.28-.52-.37c-.2-.09-.43-.13-.68-.13s-.48.05-.68.13c-.2.09-.38.21-.52.37s-.26.34-.33.55c-.08.21-.12.44-.12.68"/>
    <rect class="cls-3" x="12.55" y="51.17" width=".78" height="7.53"/>
    <path class="cls-3" d="m18.76,57.6c0,.21,0,.41.02.6.01.19.02.36.02.51h-.74c0-.13,0-.25-.01-.38s-.01-.25-.01-.39h-.02c-.05.11-.13.22-.22.33s-.21.2-.34.28-.28.15-.45.2c-.17.05-.35.07-.54.07-.31,0-.57-.05-.79-.14s-.41-.22-.55-.39c-.15-.17-.25-.37-.32-.6s-.1-.49-.1-.77v-2.88h.78v2.8c0,.39.09.7.26.93.17.23.44.34.81.34.25,0,.47-.04.65-.13.18-.09.33-.21.45-.37s.2-.35.26-.57c.06-.22.08-.46.08-.73v-2.27h.78v3.56h0Z"/>
    <path class="cls-3" d="m23.38,55.21c-.17-.2-.35-.34-.54-.43-.19-.09-.4-.13-.64-.13-.26,0-.49.05-.69.13-.2.09-.36.21-.49.37s-.23.34-.29.55c-.07.21-.1.43-.1.67s.04.46.12.67c.08.21.18.39.32.55.14.16.3.28.49.37.19.09.41.13.65.13.51,0,.91-.19,1.19-.58l.58.55c-.23.26-.49.45-.8.57s-.63.18-.97.18c-.36,0-.69-.06-.99-.18-.3-.12-.55-.29-.76-.51-.21-.22-.37-.48-.49-.78s-.17-.63-.17-.99.06-.68.17-.98.28-.56.49-.78.47-.39.76-.51c.3-.12.62-.18.98-.18s.67.06.98.18.58.31.81.56l-.62.55h0Z"/>
    <path class="cls-3" d="m24.59,52.22c0-.15.06-.29.16-.4.11-.11.24-.17.4-.17s.29.06.4.17c.11.11.16.25.16.4,0,.17-.05.3-.16.41-.11.11-.24.16-.41.16s-.3-.05-.41-.16c-.11-.11-.16-.24-.16-.41m.18,1.82h.78v4.66h-.78v-4.66Z"/>
    <path class="cls-3" d="m26.65,56.37c0-.37.06-.7.19-1,.13-.3.3-.56.52-.77.22-.22.48-.38.79-.5.31-.12.64-.18,1-.18s.69.06,1,.18c.31.12.57.29.79.5.22.22.39.47.52.77s.19.63.19,1-.06.7-.19,1c-.13.3-.3.56-.52.77s-.48.38-.79.5c-.31.12-.64.18-1,.18s-.69-.06-1-.18c-.31-.12-.57-.29-.79-.5-.22-.22-.39-.47-.52-.77s-.19-.63-.19-1m.84,0c0,.25.04.47.12.68.08.21.19.39.33.55s.32.28.52.37c.2.09.43.13.68.13s.48-.05.68-.13c.2-.09.38-.21.52-.37s.26-.34.33-.55c.08-.21.12-.44.12-.68s-.04-.47-.12-.68c-.08-.21-.19-.39-.33-.55s-.32-.28-.52-.37c-.2-.09-.43-.13-.68-.13s-.48.05-.68.13c-.2.09-.38.21-.52.37s-.26.34-.33.55c-.08.21-.12.44-.12.68"/>
    <path class="cls-3" d="m32.67,55.15c0-.21,0-.41-.02-.6-.01-.19-.02-.36-.02-.51h.74c0,.13,0,.25.01.38,0,.13.01.26.01.39h.02c.05-.11.13-.22.22-.33s.21-.2.34-.28.28-.15.45-.2c.17-.05.35-.07.54-.07.31,0,.57.05.79.14s.41.22.55.39c.15.17.25.37.32.6s.1.49.1.77v2.88h-.78v-2.8c0-.39-.09-.7-.26-.93s-.44-.34-.81-.34c-.25,0-.47.04-.65.13s-.33.21-.45.37-.2.35-.26.57c-.06.22-.08.46-.08.73v2.27h-.78v-3.56h0Z"/>
    <path class="cls-3" d="m42.2,57.86c-.28.36-.58.61-.92.75-.33.14-.72.21-1.16.21-.37,0-.69-.06-.99-.19s-.54-.3-.74-.52-.36-.48-.47-.78-.16-.62-.16-.96c0-.36.06-.69.18-.99s.29-.56.5-.78c.21-.22.46-.38.76-.5s.61-.18.96-.18c.32,0,.62.06.9.16s.51.27.7.48c.2.21.35.46.45.77s.16.65.16,1.03v.25h-3.77c.01.2.06.39.14.57s.19.34.32.48c.13.14.29.24.47.32.18.08.38.12.59.12.34,0,.62-.06.86-.18s.44-.3.63-.53l.59.46h0Zm-.67-1.9c-.01-.4-.14-.72-.39-.96-.25-.24-.58-.36-1.02-.36s-.78.12-1.05.36-.43.56-.48.96h2.93,0Z"/>
    <path class="cls-3" d="m43.51,57.48c.15.19.32.35.5.46s.41.17.69.17c.12,0,.24-.01.36-.04.12-.03.23-.07.33-.13.1-.06.18-.13.24-.22.06-.09.09-.2.09-.32s-.03-.23-.08-.31-.13-.15-.22-.2c-.09-.06-.2-.1-.32-.13s-.24-.06-.37-.09c-.22-.05-.43-.1-.63-.16-.2-.06-.37-.14-.52-.23s-.27-.22-.36-.37c-.09-.15-.13-.35-.13-.59,0-.23.05-.43.15-.6.1-.17.23-.32.4-.43s.35-.2.56-.26c.21-.06.42-.09.64-.09.33,0,.64.07.92.2s.5.35.66.65l-.65.43c-.1-.17-.23-.3-.39-.4s-.36-.15-.59-.15c-.11,0-.21.01-.32.04s-.21.07-.29.12-.16.12-.21.2c-.06.08-.08.18-.08.28,0,.1.03.18.09.25.06.07.15.13.26.19.11.05.24.1.38.14.14.04.29.07.44.1.21.04.4.09.59.15.19.06.35.15.49.25.14.11.25.24.33.4.08.16.12.36.12.59,0,.27-.05.49-.16.68-.11.19-.25.34-.42.45-.18.12-.38.2-.6.25-.22.05-.45.08-.68.08-.4,0-.74-.06-1.03-.18-.29-.12-.55-.35-.78-.68l.62-.48h0Z"/>
    <path class="cls-3" d="m50.02,54.64c.24-.25.52-.43.85-.54.33-.12.66-.17,1-.17.69,0,1.19.16,1.49.49.31.32.46.82.46,1.48v2c0,.13,0,.27.02.41.01.14.03.27.05.39h-.75c-.03-.11-.04-.22-.05-.35s0-.24,0-.34h-.02c-.15.24-.36.44-.61.59-.26.15-.56.23-.92.23-.24,0-.46-.03-.67-.09s-.39-.15-.55-.26-.28-.26-.37-.43c-.09-.17-.14-.37-.14-.6,0-.38.1-.69.3-.91s.45-.38.74-.49c.3-.11.61-.17.96-.2.34-.03.66-.04.94-.04h.3v-.14c0-.34-.1-.59-.3-.77-.2-.17-.49-.26-.85-.26-.25,0-.5.04-.74.13-.24.08-.46.21-.64.38l-.49-.51h0Zm2.25,1.82c-.5,0-.89.07-1.19.21s-.44.37-.44.69c0,.29.1.5.29.62.2.12.44.19.73.19.23,0,.42-.04.59-.12.17-.08.31-.18.42-.3.11-.13.2-.27.26-.44.06-.17.09-.35.1-.54v-.3h-.78Z"/>
    <path class="cls-3" d="m57.68,55.15c0-.21,0-.41-.02-.6-.01-.19-.02-.36-.02-.51h.74c0,.13,0,.25.01.38,0,.13.01.26.01.39h.02c.05-.11.13-.22.22-.33s.21-.2.34-.28.28-.15.45-.2c.17-.05.35-.07.54-.07.25,0,.46.03.63.09.17.06.31.14.42.23.11.09.2.19.26.29.06.1.12.19.15.27.17-.28.37-.5.6-.65s.52-.23.88-.23c.33,0,.61.05.84.13.23.09.41.22.55.39.14.17.24.38.3.62s.09.51.09.81v2.83h-.78v-2.79c0-.16-.02-.31-.05-.47-.03-.15-.09-.29-.18-.41-.09-.12-.2-.22-.35-.29s-.33-.11-.56-.11c-.17,0-.32.03-.47.1-.15.07-.27.16-.38.28-.11.12-.2.26-.26.43-.06.17-.09.36-.09.56v2.69h-.78v-2.64c0-.52-.07-.88-.21-1.1-.14-.22-.37-.32-.69-.32-.25,0-.47.04-.65.13s-.33.21-.45.37-.2.35-.26.57c-.06.22-.08.46-.08.73v2.27h-.78v-3.56h0Z"/>
    <path class="cls-3" d="m70.16,57.86c-.28.36-.58.61-.92.75-.33.14-.72.21-1.16.21-.37,0-.69-.06-.99-.19s-.54-.3-.74-.52-.36-.48-.47-.78-.16-.62-.16-.96c0-.36.06-.69.18-.99s.29-.56.5-.78c.21-.22.46-.38.76-.5s.61-.18.96-.18c.32,0,.62.06.9.16s.51.27.7.48c.2.21.35.46.45.77s.16.65.16,1.03v.25h-3.77c.01.2.06.39.14.57s.19.34.32.48c.13.14.29.24.47.32.18.08.38.12.59.12.34,0,.62-.06.86-.18s.44-.3.63-.53l.59.46h0Zm-.67-1.9c-.01-.4-.14-.72-.39-.96-.25-.24-.58-.36-1.02-.36s-.78.12-1.05.36-.43.56-.48.96h2.93,0Z"/>
    <path class="cls-3" d="m75.24,57.88h-.02c-.15.27-.38.49-.69.67-.32.18-.68.27-1.1.27-.32,0-.63-.06-.92-.19-.29-.12-.53-.29-.74-.51s-.37-.48-.49-.78-.18-.62-.18-.98.06-.68.18-.98.29-.56.5-.78c.21-.22.47-.39.77-.51.3-.12.64-.18,1-.18.34,0,.65.07.93.21.28.14.53.34.74.59h.02v-3.55h.78v7.53h-.78v-.83h0Zm0-1.5c0-.25-.04-.47-.12-.68-.08-.21-.19-.39-.33-.55s-.32-.28-.52-.37c-.2-.09-.43-.13-.68-.13s-.48.05-.68.13c-.2.09-.38.21-.52.37s-.26.34-.33.55c-.08.21-.12.44-.12.68s.04.47.12.68c.08.21.19.39.33.55s.32.28.52.37c.2.09.43.13.68.13s.48-.05.68-.13c.2-.09.38-.21.52-.37s.26-.34.33-.55c.08-.21.12-.44.12-.68"/>
    <path class="cls-3" d="m77.19,52.22c0-.15.06-.29.16-.4.11-.11.24-.17.4-.17s.29.06.4.17c.11.11.16.25.16.4,0,.17-.05.3-.16.41-.11.11-.24.16-.41.16s-.3-.05-.41-.16c-.11-.11-.16-.24-.16-.41m.18,1.82h.78v4.66h-.78v-4.66Z"/>
    <path class="cls-3" d="m83.39,57.88h-.02c-.15.27-.38.49-.69.67-.32.18-.68.27-1.1.27-.32,0-.63-.06-.92-.19-.29-.12-.53-.29-.74-.51s-.37-.48-.49-.78-.18-.62-.18-.98.06-.68.18-.98.29-.56.5-.78c.21-.22.47-.39.77-.51.3-.12.64-.18,1-.18.34,0,.65.07.93.21.28.14.53.34.74.59h.02v-3.55h.78v7.53h-.78v-.83h0Zm0-1.5c0-.25-.04-.47-.12-.68-.08-.21-.19-.39-.33-.55s-.32-.28-.52-.37c-.2-.09-.43-.13-.68-.13s-.48.05-.68.13c-.2.09-.38.21-.52.37s-.26.34-.33.55c-.08.21-.12.44-.12.68s.04.47.12.68c.08.21.19.39.33.55s.32.28.52.37c.2.09.43.13.68.13s.48-.05.68-.13c.2-.09.38-.21.52-.37s.26-.34.33-.55c.08-.21.12-.44.12-.68"/>
    <path class="cls-3" d="m85.37,54.64c.24-.25.52-.43.85-.54s.66-.17,1-.17c.69,0,1.19.16,1.49.49s.46.82.46,1.48v2c0,.13,0,.27.02.41.01.14.03.27.05.39h-.75c-.03-.11-.04-.22-.05-.35s0-.24,0-.34h-.02c-.15.24-.36.44-.61.59-.26.15-.56.23-.92.23-.24,0-.46-.03-.67-.09s-.39-.15-.55-.26c-.16-.12-.28-.26-.37-.43-.09-.17-.14-.37-.14-.6,0-.38.1-.69.3-.91s.45-.38.74-.49.61-.17.96-.2c.34-.03.66-.04.94-.04h.3v-.14c0-.34-.1-.59-.3-.77-.2-.17-.49-.26-.85-.26-.25,0-.5.04-.74.13-.24.08-.46.21-.64.38l-.49-.51h0Zm2.25,1.82c-.5,0-.89.07-1.19.21s-.44.37-.44.69c0,.29.1.5.29.62.2.12.44.19.73.19.23,0,.42-.04.59-.12.17-.08.31-.18.42-.3.11-.13.2-.27.26-.44s.09-.35.1-.54v-.3h-.78Z"/>
  </g>
</svg>