<?xml version="1.0" encoding="UTF-8"?>
<svg xmlns="http://www.w3.org/2000/svg" version="1.1" viewBox="0 0 24 24">
  <defs>
    <style>
      .cls-1 {
        fill: #0039a6;
      }
    </style>
  </defs>
  <!-- Generator: Adobe Illustrator 28.6.0, SVG Export Plug-In . SVG Version: 1.2.0 Build 709)  -->
  <g>
    <g id="Layer_1">
      <path class="cls-1" d="M11.3,8.3l-2.1-2.1c-.2-.2-.3-.4-.3-.7s.1-.5.3-.7l2.1-2.1c.2-.2.4-.3.7-.3s.5.1.7.3l2.1,2.1c.2.2.3.4.3.7s-.1.5-.3.7l-2.1,2.1c-.2.2-.4.3-.7.3s-.5-.1-.7-.3ZM2,20c-.3,0-.5,0-.7-.3s-.3-.4-.3-.7v-3c0-.6.2-1,.6-1.4.4-.4.9-.6,1.4-.6h3.3c.3,0,.7,0,1,.3s.5.4.7.7c.5.7,1.1,1.2,1.8,1.5s1.5.6,2.3.6,1.6-.2,2.3-.6,1.3-.9,1.8-1.5c.2-.3.5-.5.8-.7s.6-.3.9-.3h3.3c.6,0,1,.2,1.4.6s.6.9.6,1.4v3c0,.3,0,.5-.3.7s-.4.3-.7.3h-5c-.3,0-.5,0-.7-.3s-.3-.4-.3-.7v-1.3c-.6.4-1.2.7-1.9,1s-1.4.3-2.1.3-1.4-.1-2.1-.3-1.3-.5-1.9-1v1.3c0,.3,0,.5-.3.7s-.4.3-.7.3H2ZM4,13c-.8,0-1.5-.3-2.1-.9-.6-.6-.9-1.3-.9-2.1s.3-1.6.9-2.1c.6-.6,1.3-.9,2.1-.9s1.6.3,2.1.9.9,1.3.9,2.1-.3,1.5-.9,2.1-1.3.9-2.1.9ZM20,13c-.8,0-1.5-.3-2.1-.9s-.9-1.3-.9-2.1.3-1.6.9-2.1,1.3-.9,2.1-.9,1.6.3,2.1.9.9,1.3.9,2.1-.3,1.5-.9,2.1-1.3.9-2.1.9Z"/>
    </g>
  </g>
</svg>