<?xml version="1.0" encoding="UTF-8"?>
<svg xmlns="http://www.w3.org/2000/svg" version="1.1" viewBox="0 0 24 24">
  <defs>
    <style>
      .cls-1 {
        fill: #0039a6;
      }
    </style>
  </defs>
  <!-- Generator: Adobe Illustrator 28.6.0, SVG Export Plug-In . SVG Version: 1.2.0 Build 709)  -->
  <g>
    <g id="Layer_1">
      <path class="cls-1" d="M11,12.7l-1.4-1.4c-.2-.2-.4-.3-.7-.3s-.5.1-.7.3-.3.4-.3.7.1.5.3.7l2.1,2.1c.2.2.4.3.7.3s.5-.1.7-.3l4.3-4.3c.2-.2.3-.4.3-.7s-.1-.5-.3-.7-.4-.3-.7-.3-.5.1-.7.3l-3.5,3.5ZM12,21.9c-.1,0-.2,0-.3,0s-.2,0-.3,0c-2.3-.8-4-2.1-5.4-4.2-1.3-2-2-4.2-2-6.5v-4.7c0-.4.1-.8.4-1.1s.6-.6.9-.7l6-2.3c.2,0,.5-.1.7-.1s.5,0,.7.1l6,2.3c.4.2.7.4.9.7s.4.7.4,1.1v4.7c0,2.3-.7,4.5-2,6.5s-3.1,3.4-5.4,4.2c-.1,0-.2,0-.3,0s-.2,0-.3,0ZM12,19.9c1.7-.6,3.2-1.7,4.3-3.3s1.7-3.5,1.7-5.5v-4.7l-6-2.3-6,2.3v4.7c0,2,.6,3.9,1.7,5.5s2.6,2.8,4.3,3.3Z"/>
    </g>
  </g>
</svg>